<?xml version="1.0" encoding="UTF-8" standalone="no"?><svg xmlns="http://www.w3.org/2000/svg" xmlns:xlink="http://www.w3.org/1999/xlink" clip-rule="evenodd" stroke-miterlimit="4.00" viewBox="0 0 243 56"><desc>SVG generated by Keynote</desc><defs><linearGradient id="gradSh1.15" x1="0.0" y1="0.0" x2="100.0" y2="0.0" gradientUnits="userSpaceOnUse" gradientTransform="matrix(0.00, 0.36, 2.32, 0.00, 121.6, 10.3)"><stop offset="0.00000" stop-color="#00396E"></stop><stop offset="0.00220" stop-color="#003A6E"></stop><stop offset="0.12537" stop-color="#004380"></stop><stop offset="0.13270" stop-color="#004381"></stop><stop offset="0.52639" stop-color="#0161BA"></stop><stop offset="0.53152" stop-color="#0161BB"></stop><stop offset="0.57845" stop-color="#0266C3"></stop><stop offset="0.58065" stop-color="#0266C4"></stop><stop offset="0.68182" stop-color="#046FD6"></stop><stop offset="0.68402" stop-color="#046FD7"></stop><stop offset="0.73314" stop-color="#0873DE"></stop><stop offset="0.73460" stop-color="#0874DE"></stop><stop offset="0.80425" stop-color="#107AE7"></stop><stop offset="0.80938" stop-color="#107BE7"></stop><stop offset="0.94721" stop-color="#2087F8"></stop><stop offset="0.94868" stop-color="#2088F9"></stop><stop offset="1.00000" stop-color="#258CFF"></stop></linearGradient></defs><g transform="matrix(1.00, 0.00, -0.00, -1.00, 0.0, 56.0)"><g><clipPath id="clip-136"><path d="M 0.7 2.3 L 242.6 2.3 L 242.6 48.2 L 0.7 48.2 Z M 0.7 2.3 "></path></clipPath><g clip-path="url(#clip-136)"><image xlink:href="../../4E8B0CEF-97AA-4D4E-9E33-090D69A4A771/assets/5A186A851A82BD424707FA8616876910.png" width="240.00" height="44.00" transform="matrix(1.00, 0.00, -0.00, -1.00, 1.7, 47.2)" opacity="0.45"></image></g></g><g><clipPath id="clip-137"><path d="M 6.7 45.2 L 236.6 45.2 L 236.6 11.3 L 6.7 11.3 Z M 6.7 45.2 "></path></clipPath><g clip-path="url(#clip-137)"><g><clipPath id="clip-138"><path d="M 0.7 2.3 L 242.6 2.3 L 242.6 48.2 L 0.7 48.2 Z M 0.7 2.3 "></path></clipPath><g clip-path="url(#clip-138)"><path d="M 0.7 2.3 L 242.6 2.3 L 242.6 48.2 L 0.7 48.2 Z M 0.7 2.3 " fill="url(#gradSh1.15)"></path></g></g></g></g><image xlink:href="../../4E8B0CEF-97AA-4D4E-9E33-090D69A4A771/assets/8BD85A626E68C3004BA2AA4E8D1E0500.png" width="109.00" height="22.00" transform="matrix(1.00, 0.00, -0.00, -1.00, 69.0, 49.0)"></image><g><clipPath id="clip-139"><path d="M 3.6 -5.6 L 243.9 -5.6 L 243.9 58.0 L 3.6 58.0 Z M 3.6 -5.6 "></path></clipPath><g clip-path="url(#clip-139)"><text xml:space="preserve" font-family="TrebuchetMS" font-size="20.0" fill="#FEFFFF" transform="matrix(1.00, 0.00, -0.00, -1.00, 69.0, 33.0)">&lt;</text><text xml:space="preserve" font-family="TrebuchetMS" font-size="20.0" fill="#FEFFFF" transform="matrix(1.00, 0.00, -0.00, -1.00, 79.5, 33.0)">l</text><text xml:space="preserve" font-family="TrebuchetMS" font-size="20.0" fill="#FEFFFF" transform="matrix(1.00, 0.00, -0.00, -1.00, 85.4, 33.0)">i</text><text xml:space="preserve" font-family="TrebuchetMS" font-size="20.0" fill="#FEFFFF" transform="matrix(1.00, 0.00, -0.00, -1.00, 91.1, 33.0)">n</text><text xml:space="preserve" font-family="TrebuchetMS" font-size="20.0" fill="#FEFFFF" transform="matrix(1.00, 0.00, -0.00, -1.00, 102.0, 33.0)">k</text><text xml:space="preserve" font-family="TrebuchetMS" font-size="20.0" fill="#FEFFFF" transform="matrix(1.00, 0.00, -0.00, -1.00, 112.1, 33.0)"> </text><text xml:space="preserve" font-family="TrebuchetMS" font-size="20.0" fill="#FEFFFF" transform="matrix(1.00, 0.00, -0.00, -1.00, 118.2, 33.0)">r</text><text xml:space="preserve" font-family="TrebuchetMS" font-size="20.0" fill="#FEFFFF" transform="matrix(1.00, 0.00, -0.00, -1.00, 125.9, 33.0)">e</text><text xml:space="preserve" font-family="TrebuchetMS" font-size="20.0" fill="#FEFFFF" transform="matrix(1.00, 0.00, -0.00, -1.00, 136.8, 33.0)">l</text><text xml:space="preserve" font-family="TrebuchetMS" font-size="20.0" fill="#FEFFFF" transform="matrix(1.00, 0.00, -0.00, -1.00, 142.7, 33.0)">=</text><text xml:space="preserve" font-family="TrebuchetMS" font-size="20.0" fill="#FEFFFF" transform="matrix(1.00, 0.00, -0.00, -1.00, 153.2, 33.0)">“</text><text xml:space="preserve" font-family="TrebuchetMS" font-size="20.0" fill="#FEFFFF" transform="matrix(1.00, 0.00, -0.00, -1.00, 163.7, 33.0)">/</text></g></g><image xlink:href="EDF4474CF50C87A95602B139F1BB9AD4.png" width="129.00" height="26.00" transform="matrix(1.00, 0.00, -0.00, -1.00, 59.0, 26.0)"></image><g><clipPath id="clip-140"><path d="M 3.6 -5.6 L 243.9 -5.6 L 243.9 58.0 L 3.6 58.0 Z M 3.6 -5.6 "></path></clipPath><g clip-path="url(#clip-140)"><text xml:space="preserve" font-family="TrebuchetMS" font-size="20.0" fill="#FEFFFF" transform="matrix(1.00, 0.00, -0.00, -1.00, 60.0, 10.0)">c</text><text xml:space="preserve" font-family="TrebuchetMS" font-size="20.0" fill="#FEFFFF" transform="matrix(1.00, 0.00, -0.00, -1.00, 69.9, 10.0)">a</text><text xml:space="preserve" font-family="TrebuchetMS" font-size="20.0" fill="#FEFFFF" transform="matrix(1.00, 0.00, -0.00, -1.00, 80.4, 10.0)">t</text><text xml:space="preserve" font-family="TrebuchetMS" font-size="20.0" fill="#FEFFFF" transform="matrix(1.00, 0.00, -0.00, -1.00, 88.4, 10.0)">e</text><text xml:space="preserve" font-family="TrebuchetMS" font-size="20.0" fill="#FEFFFF" transform="matrix(1.00, 0.00, -0.00, -1.00, 99.3, 10.0)">g</text><text xml:space="preserve" font-family="TrebuchetMS" font-size="20.0" fill="#FEFFFF" transform="matrix(1.00, 0.00, -0.00, -1.00, 109.3, 10.0)">o</text><text xml:space="preserve" font-family="TrebuchetMS" font-size="20.0" fill="#FEFFFF" transform="matrix(1.00, 0.00, -0.00, -1.00, 120.0, 10.0)">r</text><text xml:space="preserve" font-family="TrebuchetMS" font-size="20.0" fill="#FEFFFF" transform="matrix(1.00, 0.00, -0.00, -1.00, 127.8, 10.0)">i</text><text xml:space="preserve" font-family="TrebuchetMS" font-size="20.0" fill="#FEFFFF" transform="matrix(1.00, 0.00, -0.00, -1.00, 133.5, 10.0)">e</text><text xml:space="preserve" font-family="TrebuchetMS" font-size="20.0" fill="#FEFFFF" transform="matrix(1.00, 0.00, -0.00, -1.00, 144.4, 10.0)">s</text><text xml:space="preserve" font-family="TrebuchetMS" font-size="20.0" fill="#FEFFFF" transform="matrix(1.00, 0.00, -0.00, -1.00, 152.5, 10.0)">/</text><text xml:space="preserve" font-family="TrebuchetMS" font-size="20.0" fill="#FEFFFF" transform="matrix(1.00, 0.00, -0.00, -1.00, 163.0, 10.0)">”</text><text xml:space="preserve" font-family="TrebuchetMS" font-size="20.0" fill="#FEFFFF" transform="matrix(1.00, 0.00, -0.00, -1.00, 173.5, 10.0)">&gt;</text></g></g></g></svg>