<?xml version="1.0" encoding="UTF-8" standalone="no"?><svg xmlns="http://www.w3.org/2000/svg" xmlns:xlink="http://www.w3.org/1999/xlink" clip-rule="evenodd" stroke-miterlimit="4.00" viewBox="0 0 178 47"><desc>SVG generated by Keynote</desc><defs><linearGradient id="gradSh1.12" x1="0.0" y1="0.0" x2="100.0" y2="0.0" gradientUnits="userSpaceOnUse" gradientTransform="matrix(0.00, 0.36, 1.67, 0.00, 89.3, 8.2)"><stop offset="0.00000" stop-color="#00396E"></stop><stop offset="0.00220" stop-color="#003A6E"></stop><stop offset="0.12537" stop-color="#004380"></stop><stop offset="0.13270" stop-color="#004381"></stop><stop offset="0.52639" stop-color="#0161BA"></stop><stop offset="0.53152" stop-color="#0161BB"></stop><stop offset="0.57845" stop-color="#0266C3"></stop><stop offset="0.58065" stop-color="#0266C4"></stop><stop offset="0.68182" stop-color="#046FD6"></stop><stop offset="0.68402" stop-color="#046FD7"></stop><stop offset="0.73314" stop-color="#0873DE"></stop><stop offset="0.73460" stop-color="#0874DE"></stop><stop offset="0.80425" stop-color="#107AE7"></stop><stop offset="0.80938" stop-color="#107BE7"></stop><stop offset="0.94721" stop-color="#2087F8"></stop><stop offset="0.94868" stop-color="#2088F9"></stop><stop offset="1.00000" stop-color="#258CFF"></stop></linearGradient></defs><g transform="matrix(1.00, 0.00, -0.00, -1.00, 0.0, 47.0)"><g><clipPath id="clip-124"><path d="M 0.9 0.2 L 177.7 0.2 L 177.7 46.1 L 0.9 46.1 Z M 0.9 0.2 "></path></clipPath><g clip-path="url(#clip-124)"><image xlink:href="5E8A11BF2B2CC7B0E847D3E490488A97.png" width="175.00" height="44.00" transform="matrix(1.00, 0.00, -0.00, -1.00, 1.9, 45.1)" opacity="0.45"></image></g></g><g><clipPath id="clip-125"><path d="M 6.9 43.1 L 171.7 43.1 L 171.7 9.2 L 6.9 9.2 Z M 6.9 43.1 "></path></clipPath><g clip-path="url(#clip-125)"><g><clipPath id="clip-126"><path d="M 0.9 0.2 L 177.7 0.2 L 177.7 46.1 L 0.9 46.1 Z M 0.9 0.2 "></path></clipPath><g clip-path="url(#clip-126)"><path d="M 0.9 0.2 L 177.7 0.2 L 177.7 46.1 L 0.9 46.1 Z M 0.9 0.2 " fill="url(#gradSh1.12)"></path></g></g></g></g><image xlink:href="A21C888E2B5881E9B2778BA6BD13C9F2.png" width="148.00" height="33.00" transform="matrix(1.00, 0.00, -0.00, -1.00, 18.0, 38.0)"></image><g><clipPath id="clip-127"><path d="M 1.5 -3.1 L 181.4 -3.1 L 181.4 51.1 L 1.5 51.1 Z M 1.5 -3.1 "></path></clipPath><g clip-path="url(#clip-127)"><text xml:space="preserve" font-family="TrebuchetMS-Bold" font-weight="bold" font-size="28.0" fill="#FEFFFF" transform="matrix(1.00, 0.00, -0.00, -1.00, 17.0, 16.0)">L</text><text xml:space="preserve" font-family="TrebuchetMS-Bold" font-weight="bold" font-size="28.0" fill="#FEFFFF" transform="matrix(1.00, 0.00, -0.00, -1.00, 32.5, 16.0)">a</text><text xml:space="preserve" font-family="TrebuchetMS-Bold" font-weight="bold" font-size="28.0" fill="#FEFFFF" transform="matrix(1.00, 0.00, -0.00, -1.00, 47.4, 16.0)">y</text><text xml:space="preserve" font-family="TrebuchetMS-Bold" font-weight="bold" font-size="28.0" fill="#FEFFFF" transform="matrix(1.00, 0.00, -0.00, -1.00, 62.3, 16.0)">o</text><text xml:space="preserve" font-family="TrebuchetMS-Bold" font-weight="bold" font-size="28.0" fill="#FEFFFF" transform="matrix(1.00, 0.00, -0.00, -1.00, 78.1, 16.0)">u</text><text xml:space="preserve" font-family="TrebuchetMS-Bold" font-weight="bold" font-size="28.0" fill="#FEFFFF" transform="matrix(1.00, 0.00, -0.00, -1.00, 94.7, 16.0)">t</text><text xml:space="preserve" font-family="TrebuchetMS-Bold" font-weight="bold" font-size="28.0" fill="#FEFFFF" transform="matrix(1.00, 0.00, -0.00, -1.00, 105.8, 16.0)">.</text><text xml:space="preserve" font-family="TrebuchetMS-Bold" font-weight="bold" font-size="28.0" fill="#FEFFFF" transform="matrix(1.00, 0.00, -0.00, -1.00, 116.1, 16.0)">C</text><text xml:space="preserve" font-family="TrebuchetMS-Bold" font-weight="bold" font-size="28.0" fill="#FEFFFF" transform="matrix(1.00, 0.00, -0.00, -1.00, 133.2, 16.0)">S</text><text xml:space="preserve" font-family="TrebuchetMS-Bold" font-weight="bold" font-size="28.0" fill="#FEFFFF" transform="matrix(1.00, 0.00, -0.00, -1.00, 147.6, 16.0)">S</text></g></g></g></svg>