<?xml version="1.0" encoding="UTF-8" standalone="no"?><svg xmlns="http://www.w3.org/2000/svg" xmlns:xlink="http://www.w3.org/1999/xlink" clip-rule="evenodd" stroke-miterlimit="4.00" viewBox="0 0 242 47"><desc>SVG generated by Keynote</desc><defs><linearGradient id="gradSh1.10" x1="0.0" y1="0.0" x2="100.0" y2="0.0" gradientUnits="userSpaceOnUse" gradientTransform="matrix(0.00, 0.36, 2.32, 0.00, 121.0, 8.2)"><stop offset="0.00000" stop-color="#00396E"></stop><stop offset="0.00220" stop-color="#003A6E"></stop><stop offset="0.12537" stop-color="#004380"></stop><stop offset="0.13270" stop-color="#004381"></stop><stop offset="0.52639" stop-color="#0161BA"></stop><stop offset="0.53152" stop-color="#0161BB"></stop><stop offset="0.57845" stop-color="#0266C3"></stop><stop offset="0.58065" stop-color="#0266C4"></stop><stop offset="0.68182" stop-color="#046FD6"></stop><stop offset="0.68402" stop-color="#046FD7"></stop><stop offset="0.73314" stop-color="#0873DE"></stop><stop offset="0.73460" stop-color="#0874DE"></stop><stop offset="0.80425" stop-color="#107AE7"></stop><stop offset="0.80938" stop-color="#107BE7"></stop><stop offset="0.94721" stop-color="#2087F8"></stop><stop offset="0.94868" stop-color="#2088F9"></stop><stop offset="1.00000" stop-color="#258CFF"></stop></linearGradient></defs><g transform="matrix(1.00, 0.00, -0.00, -1.00, 0.0, 47.0)"><g><clipPath id="clip-111"><path d="M 0.1 0.2 L 241.9 0.2 L 241.9 46.1 L 0.1 46.1 Z M 0.1 0.2 "></path></clipPath><g clip-path="url(#clip-111)"><image xlink:href="5A186A851A82BD424707FA8616876910.png" width="240.00" height="44.00" transform="matrix(1.00, 0.00, -0.00, -1.00, 1.1, 45.1)" opacity="0.45"></image></g></g><g><clipPath id="clip-112"><path d="M 6.1 43.1 L 235.9 43.1 L 235.9 9.2 L 6.1 9.2 Z M 6.1 43.1 "></path></clipPath><g clip-path="url(#clip-112)"><g><clipPath id="clip-113"><path d="M 0.1 0.2 L 241.9 0.2 L 241.9 46.1 L 0.1 46.1 Z M 0.1 0.2 "></path></clipPath><g clip-path="url(#clip-113)"><path d="M 0.1 0.2 L 241.9 0.2 L 241.9 46.1 L 0.1 46.1 Z M 0.1 0.2 " fill="url(#gradSh1.10)"></path></g></g></g></g><image xlink:href="C86953C2BB3FEE0D5350E2BDACF0F53C.png" width="220.00" height="22.00" transform="matrix(1.00, 0.00, -0.00, -1.00, 13.0, 35.0)"></image><g><clipPath id="clip-114"><path d="M 3.0 3.7 L 243.3 3.7 L 243.3 44.3 L 3.0 44.3 Z M 3.0 3.7 "></path></clipPath><g clip-path="url(#clip-114)"><text xml:space="preserve" font-family="TrebuchetMS" font-size="20.0" fill="#FEFFFF" transform="matrix(1.00, 0.00, -0.00, -1.00, 13.0, 19.0)">&lt;</text><text xml:space="preserve" font-family="TrebuchetMS" font-size="20.0" fill="#FEFFFF" transform="matrix(1.00, 0.00, -0.00, -1.00, 23.5, 19.0)">l</text><text xml:space="preserve" font-family="TrebuchetMS" font-size="20.0" fill="#FEFFFF" transform="matrix(1.00, 0.00, -0.00, -1.00, 29.4, 19.0)">i</text><text xml:space="preserve" font-family="TrebuchetMS" font-size="20.0" fill="#FEFFFF" transform="matrix(1.00, 0.00, -0.00, -1.00, 35.1, 19.0)">n</text><text xml:space="preserve" font-family="TrebuchetMS" font-size="20.0" fill="#FEFFFF" transform="matrix(1.00, 0.00, -0.00, -1.00, 46.0, 19.0)">k</text><text xml:space="preserve" font-family="TrebuchetMS" font-size="20.0" fill="#FEFFFF" transform="matrix(1.00, 0.00, -0.00, -1.00, 56.1, 19.0)"> </text><text xml:space="preserve" font-family="TrebuchetMS" font-size="20.0" fill="#FEFFFF" transform="matrix(1.00, 0.00, -0.00, -1.00, 62.2, 19.0)">r</text><text xml:space="preserve" font-family="TrebuchetMS" font-size="20.0" fill="#FEFFFF" transform="matrix(1.00, 0.00, -0.00, -1.00, 69.9, 19.0)">e</text><text xml:space="preserve" font-family="TrebuchetMS" font-size="20.0" fill="#FEFFFF" transform="matrix(1.00, 0.00, -0.00, -1.00, 80.8, 19.0)">l</text><text xml:space="preserve" font-family="TrebuchetMS" font-size="20.0" fill="#FEFFFF" transform="matrix(1.00, 0.00, -0.00, -1.00, 86.7, 19.0)">=</text><text xml:space="preserve" font-family="TrebuchetMS" font-size="20.0" fill="#FEFFFF" transform="matrix(1.00, 0.00, -0.00, -1.00, 97.2, 19.0)">“</text><text xml:space="preserve" font-family="TrebuchetMS" font-size="20.0" fill="#FEFFFF" transform="matrix(1.00, 0.00, -0.00, -1.00, 107.7, 19.0)">/</text><text xml:space="preserve" font-family="TrebuchetMS" font-size="20.0" fill="#FEFFFF" transform="matrix(1.00, 0.00, -0.00, -1.00, 118.2, 19.0)">w</text><text xml:space="preserve" font-family="TrebuchetMS" font-size="20.0" fill="#FEFFFF" transform="matrix(1.00, 0.00, -0.00, -1.00, 133.1, 19.0)">e</text><text xml:space="preserve" font-family="TrebuchetMS" font-size="20.0" fill="#FEFFFF" transform="matrix(1.00, 0.00, -0.00, -1.00, 144.0, 19.0)">l</text><text xml:space="preserve" font-family="TrebuchetMS" font-size="20.0" fill="#FEFFFF" transform="matrix(1.00, 0.00, -0.00, -1.00, 149.9, 19.0)">c</text><text xml:space="preserve" font-family="TrebuchetMS" font-size="20.0" fill="#FEFFFF" transform="matrix(1.00, 0.00, -0.00, -1.00, 159.8, 19.0)">o</text><text xml:space="preserve" font-family="TrebuchetMS" font-size="20.0" fill="#FEFFFF" transform="matrix(1.00, 0.00, -0.00, -1.00, 170.5, 19.0)">m</text><text xml:space="preserve" font-family="TrebuchetMS" font-size="20.0" fill="#FEFFFF" transform="matrix(1.00, 0.00, -0.00, -1.00, 187.1, 19.0)">e</text><text xml:space="preserve" font-family="TrebuchetMS" font-size="20.0" fill="#FEFFFF" transform="matrix(1.00, 0.00, -0.00, -1.00, 198.1, 19.0)">/</text><text xml:space="preserve" font-family="TrebuchetMS" font-size="20.0" fill="#FEFFFF" transform="matrix(1.00, 0.00, -0.00, -1.00, 208.6, 19.0)">”</text><text xml:space="preserve" font-family="TrebuchetMS" font-size="20.0" fill="#FEFFFF" transform="matrix(1.00, 0.00, -0.00, -1.00, 219.1, 19.0)">&gt;</text></g></g></g></svg>