<?xml version="1.0" encoding="UTF-8" standalone="no"?><svg xmlns="http://www.w3.org/2000/svg" xmlns:xlink="http://www.w3.org/1999/xlink" clip-rule="evenodd" stroke-miterlimit="4.00" viewBox="0 0 1024 768"><desc>SVG generated by Keynote</desc><defs><linearGradient id="gradSh1.16" x1="0.0" y1="0.0" x2="100.0" y2="0.0" gradientUnits="userSpaceOnUse" gradientTransform="matrix(0.00, 0.36, 2.32, 0.00, 573.0, 328.2)"><stop offset="0.00000" stop-color="#00396E"></stop><stop offset="0.00220" stop-color="#003A6E"></stop><stop offset="0.12537" stop-color="#004380"></stop><stop offset="0.13270" stop-color="#004381"></stop><stop offset="0.52639" stop-color="#0161BA"></stop><stop offset="0.53152" stop-color="#0161BB"></stop><stop offset="0.57845" stop-color="#0266C3"></stop><stop offset="0.58065" stop-color="#0266C4"></stop><stop offset="0.68182" stop-color="#046FD6"></stop><stop offset="0.68402" stop-color="#046FD7"></stop><stop offset="0.73314" stop-color="#0873DE"></stop><stop offset="0.73460" stop-color="#0874DE"></stop><stop offset="0.80425" stop-color="#107AE7"></stop><stop offset="0.80938" stop-color="#107BE7"></stop><stop offset="0.94721" stop-color="#2087F8"></stop><stop offset="0.94868" stop-color="#2088F9"></stop><stop offset="1.00000" stop-color="#258CFF"></stop></linearGradient><linearGradient id="gradSh1.17" x1="0.0" y1="0.0" x2="100.0" y2="0.0" gradientUnits="userSpaceOnUse" gradientTransform="matrix(0.00, 0.36, 2.32, 0.00, 615.7, 208.6)"><stop offset="0.00000" stop-color="#00396E"></stop><stop offset="0.00220" stop-color="#003A6E"></stop><stop offset="0.12537" stop-color="#004380"></stop><stop offset="0.13270" stop-color="#004381"></stop><stop offset="0.52639" stop-color="#0161BA"></stop><stop offset="0.53152" stop-color="#0161BB"></stop><stop offset="0.57845" stop-color="#0266C3"></stop><stop offset="0.58065" stop-color="#0266C4"></stop><stop offset="0.68182" stop-color="#046FD6"></stop><stop offset="0.68402" stop-color="#046FD7"></stop><stop offset="0.73314" stop-color="#0873DE"></stop><stop offset="0.73460" stop-color="#0874DE"></stop><stop offset="0.80425" stop-color="#107AE7"></stop><stop offset="0.80938" stop-color="#107BE7"></stop><stop offset="0.94721" stop-color="#2087F8"></stop><stop offset="0.94868" stop-color="#2088F9"></stop><stop offset="1.00000" stop-color="#258CFF"></stop></linearGradient><linearGradient id="gradSh1.18" x1="0.0" y1="0.0" x2="100.0" y2="0.0" gradientUnits="userSpaceOnUse" gradientTransform="matrix(0.00, 0.36, 1.67, 0.00, 411.3, 496.2)"><stop offset="0.00000" stop-color="#00396E"></stop><stop offset="0.00220" stop-color="#003A6E"></stop><stop offset="0.12537" stop-color="#004380"></stop><stop offset="0.13270" stop-color="#004381"></stop><stop offset="0.52639" stop-color="#0161BA"></stop><stop offset="0.53152" stop-color="#0161BB"></stop><stop offset="0.57845" stop-color="#0266C3"></stop><stop offset="0.58065" stop-color="#0266C4"></stop><stop offset="0.68182" stop-color="#046FD6"></stop><stop offset="0.68402" stop-color="#046FD7"></stop><stop offset="0.73314" stop-color="#0873DE"></stop><stop offset="0.73460" stop-color="#0874DE"></stop><stop offset="0.80425" stop-color="#107AE7"></stop><stop offset="0.80938" stop-color="#107BE7"></stop><stop offset="0.94721" stop-color="#2087F8"></stop><stop offset="0.94868" stop-color="#2088F9"></stop><stop offset="1.00000" stop-color="#258CFF"></stop></linearGradient><linearGradient id="gradSh1.19" x1="0.0" y1="0.0" x2="100.0" y2="0.0" gradientUnits="userSpaceOnUse" gradientTransform="matrix(0.00, 0.36, 1.67, 0.00, 618.1, 495.8)"><stop offset="0.00000" stop-color="#00396E"></stop><stop offset="0.00220" stop-color="#003A6E"></stop><stop offset="0.12537" stop-color="#004380"></stop><stop offset="0.13270" stop-color="#004381"></stop><stop offset="0.52639" stop-color="#0161BA"></stop><stop offset="0.53152" stop-color="#0161BB"></stop><stop offset="0.57845" stop-color="#0266C3"></stop><stop offset="0.58065" stop-color="#0266C4"></stop><stop offset="0.68182" stop-color="#046FD6"></stop><stop offset="0.68402" stop-color="#046FD7"></stop><stop offset="0.73314" stop-color="#0873DE"></stop><stop offset="0.73460" stop-color="#0874DE"></stop><stop offset="0.80425" stop-color="#107AE7"></stop><stop offset="0.80938" stop-color="#107BE7"></stop><stop offset="0.94721" stop-color="#2087F8"></stop><stop offset="0.94868" stop-color="#2088F9"></stop><stop offset="1.00000" stop-color="#258CFF"></stop></linearGradient><linearGradient id="gradSh1.20" x1="0.0" y1="0.0" x2="100.0" y2="0.0" gradientUnits="userSpaceOnUse" gradientTransform="matrix(0.00, 0.36, 2.32, 0.00, 317.5, 273.0)"><stop offset="0.00000" stop-color="#00396E"></stop><stop offset="0.00220" stop-color="#003A6E"></stop><stop offset="0.12537" stop-color="#004380"></stop><stop offset="0.13270" stop-color="#004381"></stop><stop offset="0.52639" stop-color="#0161BA"></stop><stop offset="0.53152" stop-color="#0161BB"></stop><stop offset="0.57845" stop-color="#0266C3"></stop><stop offset="0.58065" stop-color="#0266C4"></stop><stop offset="0.68182" stop-color="#046FD6"></stop><stop offset="0.68402" stop-color="#046FD7"></stop><stop offset="0.73314" stop-color="#0873DE"></stop><stop offset="0.73460" stop-color="#0874DE"></stop><stop offset="0.80425" stop-color="#107AE7"></stop><stop offset="0.80938" stop-color="#107BE7"></stop><stop offset="0.94721" stop-color="#2087F8"></stop><stop offset="0.94868" stop-color="#2088F9"></stop><stop offset="1.00000" stop-color="#258CFF"></stop></linearGradient><linearGradient id="gradSh1.21" x1="0.0" y1="0.0" x2="100.0" y2="0.0" gradientUnits="userSpaceOnUse" gradientTransform="matrix(0.00, 0.36, 2.32, 0.00, 317.6, 131.3)"><stop offset="0.00000" stop-color="#00396E"></stop><stop offset="0.00220" stop-color="#003A6E"></stop><stop offset="0.12537" stop-color="#004380"></stop><stop offset="0.13270" stop-color="#004381"></stop><stop offset="0.52639" stop-color="#0161BA"></stop><stop offset="0.53152" stop-color="#0161BB"></stop><stop offset="0.57845" stop-color="#0266C3"></stop><stop offset="0.58065" stop-color="#0266C4"></stop><stop offset="0.68182" stop-color="#046FD6"></stop><stop offset="0.68402" stop-color="#046FD7"></stop><stop offset="0.73314" stop-color="#0873DE"></stop><stop offset="0.73460" stop-color="#0874DE"></stop><stop offset="0.80425" stop-color="#107AE7"></stop><stop offset="0.80938" stop-color="#107BE7"></stop><stop offset="0.94721" stop-color="#2087F8"></stop><stop offset="0.94868" stop-color="#2088F9"></stop><stop offset="1.00000" stop-color="#258CFF"></stop></linearGradient></defs><g transform="matrix(1.00, 0.00, -0.00, -1.00, 0.0, 768.0)"><path d="M 0.0 768.0 L 1024.0 768.0 L 1024.0 0.0 L 0.0 0.0 Z M 0.0 768.0 " fill="#000000"></path><text xml:space="preserve" font-family="Helvetica-Light" font-size="72.8" fill="#FEFFFF" transform="matrix(1.00, 0.00, -0.00, -1.00, 82.0, 636.0)">B</text><text xml:space="preserve" font-family="Helvetica-Light" font-size="72.8" fill="#FEFFFF" transform="matrix(1.00, 0.00, -0.00, -1.00, 130.6, 636.0)">r</text><text xml:space="preserve" font-family="Helvetica-Light" font-size="72.8" fill="#FEFFFF" transform="matrix(1.00, 0.00, -0.00, -1.00, 153.5, 636.0)">o</text><text xml:space="preserve" font-family="Helvetica-Light" font-size="72.8" fill="#FEFFFF" transform="matrix(1.00, 0.00, -0.00, -1.00, 194.0, 636.0)">w</text><text xml:space="preserve" font-family="Helvetica-Light" font-size="72.8" fill="#FEFFFF" transform="matrix(1.00, 0.00, -0.00, -1.00, 246.5, 636.0)">s</text><text xml:space="preserve" font-family="Helvetica-Light" font-size="72.8" fill="#FEFFFF" transform="matrix(1.00, 0.00, -0.00, -1.00, 282.9, 636.0)">e</text><text xml:space="preserve" font-family="Helvetica-Light" font-size="72.8" fill="#FEFFFF" transform="matrix(1.00, 0.00, -0.00, -1.00, 323.4, 636.0)">r</text><text xml:space="preserve" font-family="Helvetica-Light" font-size="72.8" fill="#FEFFFF" transform="matrix(1.00, 0.00, -0.00, -1.00, 347.6, 636.0)"> </text><text xml:space="preserve" font-family="Helvetica-Light" font-size="72.8" fill="#FEFFFF" transform="matrix(1.00, 0.00, -0.00, -1.00, 367.9, 636.0)">S</text><text xml:space="preserve" font-family="Helvetica-Light" font-size="72.8" fill="#FEFFFF" transform="matrix(1.00, 0.00, -0.00, -1.00, 412.4, 636.0)">i</text><text xml:space="preserve" font-family="Helvetica-Light" font-size="72.8" fill="#FEFFFF" transform="matrix(1.00, 0.00, -0.00, -1.00, 428.5, 636.0)">d</text><text xml:space="preserve" font-family="Helvetica-Light" font-size="72.8" fill="#FEFFFF" transform="matrix(1.00, 0.00, -0.00, -1.00, 473.0, 636.0)">e</text><text xml:space="preserve" font-family="Helvetica-Light" font-size="72.8" fill="#FEFFFF" transform="matrix(1.00, 0.00, -0.00, -1.00, 513.5, 636.0)"> </text><text xml:space="preserve" font-family="Helvetica-Light" font-size="72.8" fill="#FEFFFF" transform="matrix(1.00, 0.00, -0.00, -1.00, 533.7, 636.0)">C</text><text xml:space="preserve" font-family="Helvetica-Light" font-size="72.8" fill="#FEFFFF" transform="matrix(1.00, 0.00, -0.00, -1.00, 586.3, 636.0)">o</text><text xml:space="preserve" font-family="Helvetica-Light" font-size="72.8" fill="#FEFFFF" transform="matrix(1.00, 0.00, -0.00, -1.00, 626.8, 636.0)">m</text><text xml:space="preserve" font-family="Helvetica-Light" font-size="72.8" fill="#FEFFFF" transform="matrix(1.00, 0.00, -0.00, -1.00, 687.4, 636.0)">p</text><text xml:space="preserve" font-family="Helvetica-Light" font-size="72.8" fill="#FEFFFF" transform="matrix(1.00, 0.00, -0.00, -1.00, 731.9, 636.0)">o</text><text xml:space="preserve" font-family="Helvetica-Light" font-size="72.8" fill="#FEFFFF" transform="matrix(1.00, 0.00, -0.00, -1.00, 772.4, 636.0)">s</text><text xml:space="preserve" font-family="Helvetica-Light" font-size="72.8" fill="#FEFFFF" transform="matrix(1.00, 0.00, -0.00, -1.00, 808.8, 636.0)">i</text><text xml:space="preserve" font-family="Helvetica-Light" font-size="72.8" fill="#FEFFFF" transform="matrix(1.00, 0.00, -0.00, -1.00, 824.9, 636.0)">t</text><text xml:space="preserve" font-family="Helvetica-Light" font-size="72.8" fill="#FEFFFF" transform="matrix(1.00, 0.00, -0.00, -1.00, 845.2, 636.0)">i</text><text xml:space="preserve" font-family="Helvetica-Light" font-size="72.8" fill="#FEFFFF" transform="matrix(1.00, 0.00, -0.00, -1.00, 861.3, 636.0)">o</text><text xml:space="preserve" font-family="Helvetica-Light" font-size="72.8" fill="#FEFFFF" transform="matrix(1.00, 0.00, -0.00, -1.00, 901.8, 636.0)">n</text><image xlink:href="../../4E8B0CEF-97AA-4D4E-9E33-090D69A4A771/assets/C67D28F45477B9E8215FACEB306F2F73.png" width="590.00" height="450.00" transform="matrix(1.00, 0.00, -0.00, -1.00, 234.8, 539.4)" opacity="0.35"></image><path d="M 0.0 0.0 L 577.6 0.0 L 577.6 438.5 L 0.0 438.5 Z M 0.0 0.0 " fill="none" stroke="#0000FF" stroke-width="6.00" stroke-linejoin="round" transform="matrix(1.00, 0.00, 0.00, -1.00, 240.8, 535.2)"></path><g><clipPath id="clip-141"><path d="M 245.0 533.0 L 815.0 533.0 L 815.0 100.0 L 245.0 100.0 Z M 245.2 533.1 "></path></clipPath><g clip-path="url(#clip-141)"><image xlink:href="../../A3D91DCB-44D6-4F2E-B95F-4EFA2D13DC26/assets/70EED9997D9AC9F406DD93B19F5B28B3.png" width="620.00" height="497.00" transform="matrix(1.00, 0.00, -0.00, -1.00, 225.0, 584.0)"></image></g></g><g><clipPath id="clip-142"><path d="M 452.1 320.2 L 693.9 320.2 L 693.9 366.1 L 452.1 366.1 Z M 452.1 320.2 "></path></clipPath><g clip-path="url(#clip-142)"><image xlink:href="../../4E8B0CEF-97AA-4D4E-9E33-090D69A4A771/assets/5A186A851A82BD424707FA8616876910.png" width="240.00" height="44.00" transform="matrix(1.00, 0.00, -0.00, -1.00, 453.1, 365.1)" opacity="0.45"></image></g></g><g><clipPath id="clip-143"><path d="M 458.1 363.1 L 687.9 363.1 L 687.9 329.2 L 458.1 329.2 Z M 458.1 363.1 "></path></clipPath><g clip-path="url(#clip-143)"><g><clipPath id="clip-144"><path d="M 452.1 320.2 L 693.9 320.2 L 693.9 366.1 L 452.1 366.1 Z M 452.1 320.2 "></path></clipPath><g clip-path="url(#clip-144)"><path d="M 452.1 320.2 L 693.9 320.2 L 693.9 366.1 L 452.1 366.1 Z M 452.1 320.2 " fill="url(#gradSh1.16)"></path></g></g></g></g><image xlink:href="../../4E8B0CEF-97AA-4D4E-9E33-090D69A4A771/assets/C86953C2BB3FEE0D5350E2BDACF0F53C.png" width="220.00" height="22.00" transform="matrix(1.00, 0.00, -0.00, -1.00, 465.0, 355.0)"></image><g><clipPath id="clip-145"><path d="M 455.0 323.7 L 695.3 323.7 L 695.3 364.3 L 455.0 364.3 Z M 455.0 323.7 "></path></clipPath><g clip-path="url(#clip-145)"><text xml:space="preserve" font-family="TrebuchetMS" font-size="20.0" fill="#FEFFFF" transform="matrix(1.00, 0.00, -0.00, -1.00, 465.0, 339.0)">&lt;</text><text xml:space="preserve" font-family="TrebuchetMS" font-size="20.0" fill="#FEFFFF" transform="matrix(1.00, 0.00, -0.00, -1.00, 475.5, 339.0)">l</text><text xml:space="preserve" font-family="TrebuchetMS" font-size="20.0" fill="#FEFFFF" transform="matrix(1.00, 0.00, -0.00, -1.00, 481.4, 339.0)">i</text><text xml:space="preserve" font-family="TrebuchetMS" font-size="20.0" fill="#FEFFFF" transform="matrix(1.00, 0.00, -0.00, -1.00, 487.1, 339.0)">n</text><text xml:space="preserve" font-family="TrebuchetMS" font-size="20.0" fill="#FEFFFF" transform="matrix(1.00, 0.00, -0.00, -1.00, 498.0, 339.0)">k</text><text xml:space="preserve" font-family="TrebuchetMS" font-size="20.0" fill="#FEFFFF" transform="matrix(1.00, 0.00, -0.00, -1.00, 508.1, 339.0)"> </text><text xml:space="preserve" font-family="TrebuchetMS" font-size="20.0" fill="#FEFFFF" transform="matrix(1.00, 0.00, -0.00, -1.00, 514.2, 339.0)">r</text><text xml:space="preserve" font-family="TrebuchetMS" font-size="20.0" fill="#FEFFFF" transform="matrix(1.00, 0.00, -0.00, -1.00, 521.9, 339.0)">e</text><text xml:space="preserve" font-family="TrebuchetMS" font-size="20.0" fill="#FEFFFF" transform="matrix(1.00, 0.00, -0.00, -1.00, 532.8, 339.0)">l</text><text xml:space="preserve" font-family="TrebuchetMS" font-size="20.0" fill="#FEFFFF" transform="matrix(1.00, 0.00, -0.00, -1.00, 538.7, 339.0)">=</text><text xml:space="preserve" font-family="TrebuchetMS" font-size="20.0" fill="#FEFFFF" transform="matrix(1.00, 0.00, -0.00, -1.00, 549.2, 339.0)">“</text><text xml:space="preserve" font-family="TrebuchetMS" font-size="20.0" fill="#FEFFFF" transform="matrix(1.00, 0.00, -0.00, -1.00, 559.7, 339.0)">/</text><text xml:space="preserve" font-family="TrebuchetMS" font-size="20.0" fill="#FEFFFF" transform="matrix(1.00, 0.00, -0.00, -1.00, 570.2, 339.0)">w</text><text xml:space="preserve" font-family="TrebuchetMS" font-size="20.0" fill="#FEFFFF" transform="matrix(1.00, 0.00, -0.00, -1.00, 585.1, 339.0)">e</text><text xml:space="preserve" font-family="TrebuchetMS" font-size="20.0" fill="#FEFFFF" transform="matrix(1.00, 0.00, -0.00, -1.00, 596.0, 339.0)">l</text><text xml:space="preserve" font-family="TrebuchetMS" font-size="20.0" fill="#FEFFFF" transform="matrix(1.00, 0.00, -0.00, -1.00, 601.9, 339.0)">c</text><text xml:space="preserve" font-family="TrebuchetMS" font-size="20.0" fill="#FEFFFF" transform="matrix(1.00, 0.00, -0.00, -1.00, 611.8, 339.0)">o</text><text xml:space="preserve" font-family="TrebuchetMS" font-size="20.0" fill="#FEFFFF" transform="matrix(1.00, 0.00, -0.00, -1.00, 622.5, 339.0)">m</text><text xml:space="preserve" font-family="TrebuchetMS" font-size="20.0" fill="#FEFFFF" transform="matrix(1.00, 0.00, -0.00, -1.00, 639.1, 339.0)">e</text><text xml:space="preserve" font-family="TrebuchetMS" font-size="20.0" fill="#FEFFFF" transform="matrix(1.00, 0.00, -0.00, -1.00, 650.1, 339.0)">/</text><text xml:space="preserve" font-family="TrebuchetMS" font-size="20.0" fill="#FEFFFF" transform="matrix(1.00, 0.00, -0.00, -1.00, 660.6, 339.0)">”</text><text xml:space="preserve" font-family="TrebuchetMS" font-size="20.0" fill="#FEFFFF" transform="matrix(1.00, 0.00, -0.00, -1.00, 671.1, 339.0)">&gt;</text></g></g><g><clipPath id="clip-146"><path d="M 239.5 93.6 L 440.4 93.6 L 440.4 226.5 L 239.5 226.5 Z M 239.5 93.6 "></path></clipPath><g clip-path="url(#clip-146)"><image xlink:href="../../4E8B0CEF-97AA-4D4E-9E33-090D69A4A771/assets/D810BC8A18FFBEF25650F76F3CC39A75.png" width="199.00" height="131.00" transform="matrix(1.00, 0.00, -0.00, -1.00, 240.5, 225.5)" opacity="0.35"></image><path d="M 0.0 99.1 L 0.0 19.8 C 0.0 8.9 8.9 0.0 19.8 0.0 L 167.1 0.0 C 178.0 0.0 186.9 8.9 186.9 19.8 L 186.9 99.1 C 186.9 110.0 178.0 118.9 167.1 118.9 L 19.8 118.9 C 8.9 118.9 0.0 110.0 0.0 99.1 Z M 0.0 99.1 " fill="none" stroke="#FFFF00" stroke-width="6.00" stroke-linejoin="round" transform="matrix(1.00, 0.00, 0.00, -1.00, 246.5, 221.3)"></path></g></g><g><clipPath id="clip-147"><path d="M 239.5 219.0 L 441.0 219.0 L 441.0 429.7 L 239.5 429.7 Z M 239.5 219.0 "></path></clipPath><g clip-path="url(#clip-147)"><image xlink:href="../../4E8B0CEF-97AA-4D4E-9E33-090D69A4A771/assets/EAAD2D386ED4213FFCDF7F1D009EC893.png" width="200.00" height="209.00" transform="matrix(1.00, 0.00, -0.00, -1.00, 240.5, 428.7)" opacity="0.35"></image><path d="M 0.0 165.5 L 0.0 31.3 C 0.0 14.0 14.0 0.0 31.3 0.0 L 156.3 0.0 C 173.6 0.0 187.6 14.0 187.6 31.3 L 187.6 165.5 C 187.6 182.7 173.6 196.7 156.3 196.7 L 31.3 196.7 C 14.0 196.7 0.0 182.7 0.0 165.5 Z M 0.0 165.5 " fill="none" stroke="#FFFF00" stroke-width="6.00" stroke-linejoin="round" transform="matrix(1.00, 0.00, 0.00, -1.00, 246.5, 424.5)"></path></g></g><g><clipPath id="clip-148"><path d="M 435.1 309.6 L 820.6 309.6 L 820.6 428.2 L 435.1 428.2 Z M 435.1 309.6 "></path></clipPath><g clip-path="url(#clip-148)"><image xlink:href="../../4E8B0CEF-97AA-4D4E-9E33-090D69A4A771/assets/EE9C60C5D9714DC95FFC67938409311D.png" width="383.00" height="117.00" transform="matrix(1.00, 0.00, -0.00, -1.00, 436.1, 427.2)" opacity="0.35"></image><path d="M 0.0 87.2 L 0.0 17.4 C 0.0 7.8 7.8 0.0 17.4 0.0 L 354.0 0.0 C 363.7 0.0 371.5 7.8 371.5 17.4 L 371.5 87.2 C 371.5 96.8 363.7 104.6 354.0 104.6 L 17.4 104.6 C 7.8 104.6 0.0 96.8 0.0 87.2 Z M 0.0 87.2 " fill="none" stroke="#FFFF00" stroke-width="6.00" stroke-linejoin="round" transform="matrix(1.00, 0.00, 0.00, -1.00, 442.1, 423.1)"></path></g></g><g><clipPath id="clip-149"><path d="M 434.2 97.7 L 819.6 97.7 L 819.6 320.8 L 434.2 320.8 Z M 434.2 97.7 "></path></clipPath><g clip-path="url(#clip-149)"><image xlink:href="../../4E8B0CEF-97AA-4D4E-9E33-090D69A4A771/assets/1808328B4D18A835BC67DF2E180920B0.png" width="383.00" height="221.00" transform="matrix(1.00, 0.00, -0.00, -1.00, 435.2, 319.8)" opacity="0.35"></image><path d="M 0.0 174.3 L 0.0 34.9 C 0.0 15.6 15.6 0.0 34.9 0.0 L 336.6 0.0 C 355.9 0.0 371.5 15.6 371.5 34.9 L 371.5 174.3 C 371.5 193.5 355.9 209.1 336.6 209.1 L 34.9 209.1 C 15.6 209.1 0.0 193.5 0.0 174.3 Z M 0.0 174.3 " fill="none" stroke="#FFFF00" stroke-width="6.00" stroke-linejoin="round" transform="matrix(1.00, 0.00, 0.00, -1.00, 441.2, 315.6)"></path></g></g><g><clipPath id="clip-150"><path d="M 494.8 200.6 L 736.7 200.6 L 736.7 246.5 L 494.8 246.5 Z M 494.8 200.6 "></path></clipPath><g clip-path="url(#clip-150)"><image xlink:href="../../4E8B0CEF-97AA-4D4E-9E33-090D69A4A771/assets/5A186A851A82BD424707FA8616876910.png" width="240.00" height="44.00" transform="matrix(1.00, 0.00, -0.00, -1.00, 495.8, 245.5)" opacity="0.45"></image></g></g><g><clipPath id="clip-151"><path d="M 500.8 243.5 L 730.7 243.5 L 730.7 209.6 L 500.8 209.6 Z M 500.8 243.5 "></path></clipPath><g clip-path="url(#clip-151)"><g><clipPath id="clip-152"><path d="M 494.8 200.6 L 736.7 200.6 L 736.7 246.5 L 494.8 246.5 Z M 494.8 200.6 "></path></clipPath><g clip-path="url(#clip-152)"><path d="M 494.8 200.6 L 736.7 200.6 L 736.7 246.5 L 494.8 246.5 Z M 494.8 200.6 " fill="url(#gradSh1.17)"></path></g></g></g></g><image xlink:href="../../4E8B0CEF-97AA-4D4E-9E33-090D69A4A771/assets/8BD85A626E68C3004BA2AA4E8D1E0500.png" width="109.00" height="22.00" transform="matrix(1.00, 0.00, -0.00, -1.00, 563.0, 247.0)"></image><g><clipPath id="clip-153"><path d="M 497.7 192.6 L 738.0 192.6 L 738.0 256.2 L 497.7 256.2 Z M 497.7 192.6 "></path></clipPath><g clip-path="url(#clip-153)"><text xml:space="preserve" font-family="TrebuchetMS" font-size="20.0" fill="#FEFFFF" transform="matrix(1.00, 0.00, -0.00, -1.00, 563.0, 231.0)">&lt;</text><text xml:space="preserve" font-family="TrebuchetMS" font-size="20.0" fill="#FEFFFF" transform="matrix(1.00, 0.00, -0.00, -1.00, 573.5, 231.0)">l</text><text xml:space="preserve" font-family="TrebuchetMS" font-size="20.0" fill="#FEFFFF" transform="matrix(1.00, 0.00, -0.00, -1.00, 579.4, 231.0)">i</text><text xml:space="preserve" font-family="TrebuchetMS" font-size="20.0" fill="#FEFFFF" transform="matrix(1.00, 0.00, -0.00, -1.00, 585.1, 231.0)">n</text><text xml:space="preserve" font-family="TrebuchetMS" font-size="20.0" fill="#FEFFFF" transform="matrix(1.00, 0.00, -0.00, -1.00, 596.0, 231.0)">k</text><text xml:space="preserve" font-family="TrebuchetMS" font-size="20.0" fill="#FEFFFF" transform="matrix(1.00, 0.00, -0.00, -1.00, 606.1, 231.0)"> </text><text xml:space="preserve" font-family="TrebuchetMS" font-size="20.0" fill="#FEFFFF" transform="matrix(1.00, 0.00, -0.00, -1.00, 612.2, 231.0)">r</text><text xml:space="preserve" font-family="TrebuchetMS" font-size="20.0" fill="#FEFFFF" transform="matrix(1.00, 0.00, -0.00, -1.00, 619.9, 231.0)">e</text><text xml:space="preserve" font-family="TrebuchetMS" font-size="20.0" fill="#FEFFFF" transform="matrix(1.00, 0.00, -0.00, -1.00, 630.8, 231.0)">l</text><text xml:space="preserve" font-family="TrebuchetMS" font-size="20.0" fill="#FEFFFF" transform="matrix(1.00, 0.00, -0.00, -1.00, 636.7, 231.0)">=</text><text xml:space="preserve" font-family="TrebuchetMS" font-size="20.0" fill="#FEFFFF" transform="matrix(1.00, 0.00, -0.00, -1.00, 647.2, 231.0)">“</text><text xml:space="preserve" font-family="TrebuchetMS" font-size="20.0" fill="#FEFFFF" transform="matrix(1.00, 0.00, -0.00, -1.00, 657.7, 231.0)">/</text></g></g><image xlink:href="../../4E8B0CEF-97AA-4D4E-9E33-090D69A4A771/assets/CFBF0974BF32E7D9C75BFD2B19134838.png" width="124.00" height="22.00" transform="matrix(1.00, 0.00, -0.00, -1.00, 555.0, 224.0)"></image><g><clipPath id="clip-154"><path d="M 497.7 192.6 L 738.0 192.6 L 738.0 256.2 L 497.7 256.2 Z M 497.7 192.6 "></path></clipPath><g clip-path="url(#clip-154)"><text xml:space="preserve" font-family="TrebuchetMS" font-size="20.0" fill="#FEFFFF" transform="matrix(1.00, 0.00, -0.00, -1.00, 555.0, 208.0)">h</text><text xml:space="preserve" font-family="TrebuchetMS" font-size="20.0" fill="#FEFFFF" transform="matrix(1.00, 0.00, -0.00, -1.00, 565.9, 208.0)">o</text><text xml:space="preserve" font-family="TrebuchetMS" font-size="20.0" fill="#FEFFFF" transform="matrix(1.00, 0.00, -0.00, -1.00, 576.7, 208.0)">t</text><text xml:space="preserve" font-family="TrebuchetMS" font-size="20.0" fill="#FEFFFF" transform="matrix(1.00, 0.00, -0.00, -1.00, 584.6, 208.0)">b</text><text xml:space="preserve" font-family="TrebuchetMS" font-size="20.0" fill="#FEFFFF" transform="matrix(1.00, 0.00, -0.00, -1.00, 595.7, 208.0)">r</text><text xml:space="preserve" font-family="TrebuchetMS" font-size="20.0" fill="#FEFFFF" transform="matrix(1.00, 0.00, -0.00, -1.00, 603.5, 208.0)">a</text><text xml:space="preserve" font-family="TrebuchetMS" font-size="20.0" fill="#FEFFFF" transform="matrix(1.00, 0.00, -0.00, -1.00, 614.0, 208.0)">n</text><text xml:space="preserve" font-family="TrebuchetMS" font-size="20.0" fill="#FEFFFF" transform="matrix(1.00, 0.00, -0.00, -1.00, 625.0, 208.0)">d</text><text xml:space="preserve" font-family="TrebuchetMS" font-size="20.0" fill="#FEFFFF" transform="matrix(1.00, 0.00, -0.00, -1.00, 636.1, 208.0)">s</text><text xml:space="preserve" font-family="TrebuchetMS" font-size="20.0" fill="#FEFFFF" transform="matrix(1.00, 0.00, -0.00, -1.00, 644.2, 208.0)">/</text><text xml:space="preserve" font-family="TrebuchetMS" font-size="20.0" fill="#FEFFFF" transform="matrix(1.00, 0.00, -0.00, -1.00, 654.7, 208.0)">”</text><text xml:space="preserve" font-family="TrebuchetMS" font-size="20.0" fill="#FEFFFF" transform="matrix(1.00, 0.00, -0.00, -1.00, 665.2, 208.0)">&gt;</text></g></g><g><clipPath id="clip-155"><path d="M 322.9 488.2 L 499.7 488.2 L 499.7 534.1 L 322.9 534.1 Z M 322.9 488.2 "></path></clipPath><g clip-path="url(#clip-155)"><image xlink:href="../../4E8B0CEF-97AA-4D4E-9E33-090D69A4A771/assets/5E8A11BF2B2CC7B0E847D3E490488A97.png" width="175.00" height="44.00" transform="matrix(1.00, 0.00, -0.00, -1.00, 323.9, 533.1)" opacity="0.45"></image></g></g><g><clipPath id="clip-156"><path d="M 328.9 531.1 L 493.7 531.1 L 493.7 497.2 L 328.9 497.2 Z M 328.9 531.1 "></path></clipPath><g clip-path="url(#clip-156)"><g><clipPath id="clip-157"><path d="M 322.9 488.2 L 499.7 488.2 L 499.7 534.1 L 322.9 534.1 Z M 322.9 488.2 "></path></clipPath><g clip-path="url(#clip-157)"><path d="M 322.9 488.2 L 499.7 488.2 L 499.7 534.1 L 322.9 534.1 Z M 322.9 488.2 " fill="url(#gradSh1.18)"></path></g></g></g></g><image xlink:href="../../4E8B0CEF-97AA-4D4E-9E33-090D69A4A771/assets/A21C888E2B5881E9B2778BA6BD13C9F2.png" width="148.00" height="33.00" transform="matrix(1.00, 0.00, -0.00, -1.00, 340.0, 526.0)"></image><g><clipPath id="clip-158"><path d="M 323.5 484.9 L 503.4 484.9 L 503.4 539.1 L 323.5 539.1 Z M 323.5 484.9 "></path></clipPath><g clip-path="url(#clip-158)"><text xml:space="preserve" font-family="TrebuchetMS-Bold" font-weight="bold" font-size="28.0" fill="#FEFFFF" transform="matrix(1.00, 0.00, -0.00, -1.00, 339.0, 504.0)">L</text><text xml:space="preserve" font-family="TrebuchetMS-Bold" font-weight="bold" font-size="28.0" fill="#FEFFFF" transform="matrix(1.00, 0.00, -0.00, -1.00, 354.5, 504.0)">a</text><text xml:space="preserve" font-family="TrebuchetMS-Bold" font-weight="bold" font-size="28.0" fill="#FEFFFF" transform="matrix(1.00, 0.00, -0.00, -1.00, 369.4, 504.0)">y</text><text xml:space="preserve" font-family="TrebuchetMS-Bold" font-weight="bold" font-size="28.0" fill="#FEFFFF" transform="matrix(1.00, 0.00, -0.00, -1.00, 384.3, 504.0)">o</text><text xml:space="preserve" font-family="TrebuchetMS-Bold" font-weight="bold" font-size="28.0" fill="#FEFFFF" transform="matrix(1.00, 0.00, -0.00, -1.00, 400.1, 504.0)">u</text><text xml:space="preserve" font-family="TrebuchetMS-Bold" font-weight="bold" font-size="28.0" fill="#FEFFFF" transform="matrix(1.00, 0.00, -0.00, -1.00, 416.7, 504.0)">t</text><text xml:space="preserve" font-family="TrebuchetMS-Bold" font-weight="bold" font-size="28.0" fill="#FEFFFF" transform="matrix(1.00, 0.00, -0.00, -1.00, 427.8, 504.0)">.</text><text xml:space="preserve" font-family="TrebuchetMS-Bold" font-weight="bold" font-size="28.0" fill="#FEFFFF" transform="matrix(1.00, 0.00, -0.00, -1.00, 438.1, 504.0)">C</text><text xml:space="preserve" font-family="TrebuchetMS-Bold" font-weight="bold" font-size="28.0" fill="#FEFFFF" transform="matrix(1.00, 0.00, -0.00, -1.00, 455.2, 504.0)">S</text><text xml:space="preserve" font-family="TrebuchetMS-Bold" font-weight="bold" font-size="28.0" fill="#FEFFFF" transform="matrix(1.00, 0.00, -0.00, -1.00, 469.6, 504.0)">S</text></g></g><g><clipPath id="clip-159"><path d="M 529.7 487.8 L 706.5 487.8 L 706.5 533.7 L 529.7 533.7 Z M 529.7 487.8 "></path></clipPath><g clip-path="url(#clip-159)"><image xlink:href="../../4E8B0CEF-97AA-4D4E-9E33-090D69A4A771/assets/5E8A11BF2B2CC7B0E847D3E490488A97.png" width="175.00" height="44.00" transform="matrix(1.00, 0.00, -0.00, -1.00, 530.7, 532.7)" opacity="0.45"></image></g></g><g><clipPath id="clip-160"><path d="M 535.7 530.7 L 700.5 530.7 L 700.5 496.8 L 535.7 496.8 Z M 535.7 530.7 "></path></clipPath><g clip-path="url(#clip-160)"><g><clipPath id="clip-161"><path d="M 529.7 487.8 L 706.5 487.8 L 706.5 533.7 L 529.7 533.7 Z M 529.7 487.8 "></path></clipPath><g clip-path="url(#clip-161)"><path d="M 529.7 487.8 L 706.5 487.8 L 706.5 533.7 L 529.7 533.7 Z M 529.7 487.8 " fill="url(#gradSh1.19)"></path></g></g></g></g><image xlink:href="../../4E8B0CEF-97AA-4D4E-9E33-090D69A4A771/assets/7D9C8515BE165307A475D92CE0910D0B.png" width="132.00" height="33.00" transform="matrix(1.00, 0.00, -0.00, -1.00, 555.0, 526.0)"></image><g><clipPath id="clip-162"><path d="M 530.3 484.5 L 710.2 484.5 L 710.2 538.8 L 530.3 538.8 Z M 530.3 484.5 "></path></clipPath><g clip-path="url(#clip-162)"><text xml:space="preserve" font-family="TrebuchetMS-Bold" font-weight="bold" font-size="28.0" fill="#FEFFFF" transform="matrix(1.00, 0.00, -0.00, -1.00, 554.0, 504.0)">L</text><text xml:space="preserve" font-family="TrebuchetMS-Bold" font-weight="bold" font-size="28.0" fill="#FEFFFF" transform="matrix(1.00, 0.00, -0.00, -1.00, 569.5, 504.0)">a</text><text xml:space="preserve" font-family="TrebuchetMS-Bold" font-weight="bold" font-size="28.0" fill="#FEFFFF" transform="matrix(1.00, 0.00, -0.00, -1.00, 584.4, 504.0)">y</text><text xml:space="preserve" font-family="TrebuchetMS-Bold" font-weight="bold" font-size="28.0" fill="#FEFFFF" transform="matrix(1.00, 0.00, -0.00, -1.00, 599.3, 504.0)">o</text><text xml:space="preserve" font-family="TrebuchetMS-Bold" font-weight="bold" font-size="28.0" fill="#FEFFFF" transform="matrix(1.00, 0.00, -0.00, -1.00, 615.1, 504.0)">u</text><text xml:space="preserve" font-family="TrebuchetMS-Bold" font-weight="bold" font-size="28.0" fill="#FEFFFF" transform="matrix(1.00, 0.00, -0.00, -1.00, 631.7, 504.0)">t</text><text xml:space="preserve" font-family="TrebuchetMS-Bold" font-weight="bold" font-size="28.0" fill="#FEFFFF" transform="matrix(1.00, 0.00, -0.00, -1.00, 642.8, 504.0)">.</text><text xml:space="preserve" font-family="TrebuchetMS-Bold" font-weight="bold" font-size="28.0" fill="#FEFFFF" transform="matrix(1.00, 0.00, -0.00, -1.00, 653.1, 504.0)">J</text><text xml:space="preserve" font-family="TrebuchetMS-Bold" font-weight="bold" font-size="28.0" fill="#FEFFFF" transform="matrix(1.00, 0.00, -0.00, -1.00, 668.0, 504.0)">S</text></g></g><g><clipPath id="clip-163"><path d="M 196.6 265.0 L 438.4 265.0 L 438.4 310.9 L 196.6 310.9 Z M 196.6 265.0 "></path></clipPath><g clip-path="url(#clip-163)"><image xlink:href="../../4E8B0CEF-97AA-4D4E-9E33-090D69A4A771/assets/5A186A851A82BD424707FA8616876910.png" width="240.00" height="44.00" transform="matrix(1.00, 0.00, -0.00, -1.00, 197.6, 309.9)" opacity="0.45"></image></g></g><g><clipPath id="clip-164"><path d="M 202.6 307.9 L 432.4 307.9 L 432.4 274.0 L 202.6 274.0 Z M 202.6 307.9 "></path></clipPath><g clip-path="url(#clip-164)"><g><clipPath id="clip-165"><path d="M 196.6 265.0 L 438.4 265.0 L 438.4 310.9 L 196.6 310.9 Z M 196.6 265.0 "></path></clipPath><g clip-path="url(#clip-165)"><path d="M 196.6 265.0 L 438.4 265.0 L 438.4 310.9 L 196.6 310.9 Z M 196.6 265.0 " fill="url(#gradSh1.20)"></path></g></g></g></g><image xlink:href="../../4E8B0CEF-97AA-4D4E-9E33-090D69A4A771/assets/A3592C014391B9C1D017BF416EB00346.png" width="222.00" height="26.00" transform="matrix(1.00, 0.00, -0.00, -1.00, 208.0, 300.0)"></image><g><clipPath id="clip-166"><path d="M 199.5 268.6 L 439.7 268.6 L 439.7 309.2 L 199.5 309.2 Z M 199.5 268.6 "></path></clipPath><g clip-path="url(#clip-166)"><text xml:space="preserve" font-family="TrebuchetMS" font-size="20.0" fill="#FEFFFF" transform="matrix(1.00, 0.00, -0.00, -1.00, 208.0, 284.0)">&lt;</text><text xml:space="preserve" font-family="TrebuchetMS" font-size="20.0" fill="#FEFFFF" transform="matrix(1.00, 0.00, -0.00, -1.00, 218.5, 284.0)">l</text><text xml:space="preserve" font-family="TrebuchetMS" font-size="20.0" fill="#FEFFFF" transform="matrix(1.00, 0.00, -0.00, -1.00, 224.4, 284.0)">i</text><text xml:space="preserve" font-family="TrebuchetMS" font-size="20.0" fill="#FEFFFF" transform="matrix(1.00, 0.00, -0.00, -1.00, 230.1, 284.0)">n</text><text xml:space="preserve" font-family="TrebuchetMS" font-size="20.0" fill="#FEFFFF" transform="matrix(1.00, 0.00, -0.00, -1.00, 241.0, 284.0)">k</text><text xml:space="preserve" font-family="TrebuchetMS" font-size="20.0" fill="#FEFFFF" transform="matrix(1.00, 0.00, -0.00, -1.00, 251.1, 284.0)"> </text><text xml:space="preserve" font-family="TrebuchetMS" font-size="20.0" fill="#FEFFFF" transform="matrix(1.00, 0.00, -0.00, -1.00, 257.2, 284.0)">r</text><text xml:space="preserve" font-family="TrebuchetMS" font-size="20.0" fill="#FEFFFF" transform="matrix(1.00, 0.00, -0.00, -1.00, 264.9, 284.0)">e</text><text xml:space="preserve" font-family="TrebuchetMS" font-size="20.0" fill="#FEFFFF" transform="matrix(1.00, 0.00, -0.00, -1.00, 275.8, 284.0)">l</text><text xml:space="preserve" font-family="TrebuchetMS" font-size="20.0" fill="#FEFFFF" transform="matrix(1.00, 0.00, -0.00, -1.00, 281.7, 284.0)">=</text><text xml:space="preserve" font-family="TrebuchetMS" font-size="20.0" fill="#FEFFFF" transform="matrix(1.00, 0.00, -0.00, -1.00, 292.2, 284.0)">“</text><text xml:space="preserve" font-family="TrebuchetMS" font-size="20.0" fill="#FEFFFF" transform="matrix(1.00, 0.00, -0.00, -1.00, 302.7, 284.0)">/</text><text xml:space="preserve" font-family="TrebuchetMS" font-size="20.0" fill="#FEFFFF" transform="matrix(1.00, 0.00, -0.00, -1.00, 313.2, 284.0)">d</text><text xml:space="preserve" font-family="TrebuchetMS" font-size="20.0" fill="#FEFFFF" transform="matrix(1.00, 0.00, -0.00, -1.00, 324.4, 284.0)">a</text><text xml:space="preserve" font-family="TrebuchetMS" font-size="20.0" fill="#FEFFFF" transform="matrix(1.00, 0.00, -0.00, -1.00, 334.9, 284.0)">i</text><text xml:space="preserve" font-family="TrebuchetMS" font-size="20.0" fill="#FEFFFF" transform="matrix(1.00, 0.00, -0.00, -1.00, 340.6, 284.0)">l</text><text xml:space="preserve" font-family="TrebuchetMS" font-size="20.0" fill="#FEFFFF" transform="matrix(1.00, 0.00, -0.00, -1.00, 346.5, 284.0)">y</text><text xml:space="preserve" font-family="TrebuchetMS" font-size="20.0" fill="#FEFFFF" transform="matrix(1.00, 0.00, -0.00, -1.00, 356.3, 284.0)">d</text><text xml:space="preserve" font-family="TrebuchetMS" font-size="20.0" fill="#FEFFFF" transform="matrix(1.00, 0.00, -0.00, -1.00, 367.5, 284.0)">e</text><text xml:space="preserve" font-family="TrebuchetMS" font-size="20.0" fill="#FEFFFF" transform="matrix(1.00, 0.00, -0.00, -1.00, 378.4, 284.0)">a</text><text xml:space="preserve" font-family="TrebuchetMS" font-size="20.0" fill="#FEFFFF" transform="matrix(1.00, 0.00, -0.00, -1.00, 388.9, 284.0)">l</text><text xml:space="preserve" font-family="TrebuchetMS" font-size="20.0" fill="#FEFFFF" transform="matrix(1.00, 0.00, -0.00, -1.00, 394.8, 284.0)">/</text><text xml:space="preserve" font-family="TrebuchetMS" font-size="20.0" fill="#FEFFFF" transform="matrix(1.00, 0.00, -0.00, -1.00, 405.3, 284.0)">”</text><text xml:space="preserve" font-family="TrebuchetMS" font-size="20.0" fill="#FEFFFF" transform="matrix(1.00, 0.00, -0.00, -1.00, 415.8, 284.0)">&gt;</text></g></g><g><clipPath id="clip-167"><path d="M 196.7 123.3 L 438.6 123.3 L 438.6 169.2 L 196.7 169.2 Z M 196.7 123.3 "></path></clipPath><g clip-path="url(#clip-167)"><image xlink:href="../../4E8B0CEF-97AA-4D4E-9E33-090D69A4A771/assets/5A186A851A82BD424707FA8616876910.png" width="240.00" height="44.00" transform="matrix(1.00, 0.00, -0.00, -1.00, 197.7, 168.2)" opacity="0.45"></image></g></g><g><clipPath id="clip-168"><path d="M 202.7 166.2 L 432.6 166.2 L 432.6 132.3 L 202.7 132.3 Z M 202.7 166.2 "></path></clipPath><g clip-path="url(#clip-168)"><g><clipPath id="clip-169"><path d="M 196.7 123.3 L 438.6 123.3 L 438.6 169.2 L 196.7 169.2 Z M 196.7 123.3 "></path></clipPath><g clip-path="url(#clip-169)"><path d="M 196.7 123.3 L 438.6 123.3 L 438.6 169.2 L 196.7 169.2 Z M 196.7 123.3 " fill="url(#gradSh1.21)"></path></g></g></g></g><image xlink:href="../../4E8B0CEF-97AA-4D4E-9E33-090D69A4A771/assets/8BD85A626E68C3004BA2AA4E8D1E0500.png" width="109.00" height="22.00" transform="matrix(1.00, 0.00, -0.00, -1.00, 265.0, 170.0)"></image><g><clipPath id="clip-170"><path d="M 199.6 115.4 L 439.9 115.4 L 439.9 179.0 L 199.6 179.0 Z M 199.6 115.4 "></path></clipPath><g clip-path="url(#clip-170)"><text xml:space="preserve" font-family="TrebuchetMS" font-size="20.0" fill="#FEFFFF" transform="matrix(1.00, 0.00, -0.00, -1.00, 265.0, 154.0)">&lt;</text><text xml:space="preserve" font-family="TrebuchetMS" font-size="20.0" fill="#FEFFFF" transform="matrix(1.00, 0.00, -0.00, -1.00, 275.5, 154.0)">l</text><text xml:space="preserve" font-family="TrebuchetMS" font-size="20.0" fill="#FEFFFF" transform="matrix(1.00, 0.00, -0.00, -1.00, 281.4, 154.0)">i</text><text xml:space="preserve" font-family="TrebuchetMS" font-size="20.0" fill="#FEFFFF" transform="matrix(1.00, 0.00, -0.00, -1.00, 287.1, 154.0)">n</text><text xml:space="preserve" font-family="TrebuchetMS" font-size="20.0" fill="#FEFFFF" transform="matrix(1.00, 0.00, -0.00, -1.00, 298.0, 154.0)">k</text><text xml:space="preserve" font-family="TrebuchetMS" font-size="20.0" fill="#FEFFFF" transform="matrix(1.00, 0.00, -0.00, -1.00, 308.1, 154.0)"> </text><text xml:space="preserve" font-family="TrebuchetMS" font-size="20.0" fill="#FEFFFF" transform="matrix(1.00, 0.00, -0.00, -1.00, 314.2, 154.0)">r</text><text xml:space="preserve" font-family="TrebuchetMS" font-size="20.0" fill="#FEFFFF" transform="matrix(1.00, 0.00, -0.00, -1.00, 321.9, 154.0)">e</text><text xml:space="preserve" font-family="TrebuchetMS" font-size="20.0" fill="#FEFFFF" transform="matrix(1.00, 0.00, -0.00, -1.00, 332.8, 154.0)">l</text><text xml:space="preserve" font-family="TrebuchetMS" font-size="20.0" fill="#FEFFFF" transform="matrix(1.00, 0.00, -0.00, -1.00, 338.7, 154.0)">=</text><text xml:space="preserve" font-family="TrebuchetMS" font-size="20.0" fill="#FEFFFF" transform="matrix(1.00, 0.00, -0.00, -1.00, 349.2, 154.0)">“</text><text xml:space="preserve" font-family="TrebuchetMS" font-size="20.0" fill="#FEFFFF" transform="matrix(1.00, 0.00, -0.00, -1.00, 359.7, 154.0)">/</text></g></g><image xlink:href="../../4E8B0CEF-97AA-4D4E-9E33-090D69A4A771/assets/EDF4474CF50C87A95602B139F1BB9AD4.png" width="129.00" height="26.00" transform="matrix(1.00, 0.00, -0.00, -1.00, 255.0, 147.0)"></image><g><clipPath id="clip-171"><path d="M 199.6 115.4 L 439.9 115.4 L 439.9 179.0 L 199.6 179.0 Z M 199.6 115.4 "></path></clipPath><g clip-path="url(#clip-171)"><text xml:space="preserve" font-family="TrebuchetMS" font-size="20.0" fill="#FEFFFF" transform="matrix(1.00, 0.00, -0.00, -1.00, 256.0, 131.0)">c</text><text xml:space="preserve" font-family="TrebuchetMS" font-size="20.0" fill="#FEFFFF" transform="matrix(1.00, 0.00, -0.00, -1.00, 265.9, 131.0)">a</text><text xml:space="preserve" font-family="TrebuchetMS" font-size="20.0" fill="#FEFFFF" transform="matrix(1.00, 0.00, -0.00, -1.00, 276.4, 131.0)">t</text><text xml:space="preserve" font-family="TrebuchetMS" font-size="20.0" fill="#FEFFFF" transform="matrix(1.00, 0.00, -0.00, -1.00, 284.4, 131.0)">e</text><text xml:space="preserve" font-family="TrebuchetMS" font-size="20.0" fill="#FEFFFF" transform="matrix(1.00, 0.00, -0.00, -1.00, 295.3, 131.0)">g</text><text xml:space="preserve" font-family="TrebuchetMS" font-size="20.0" fill="#FEFFFF" transform="matrix(1.00, 0.00, -0.00, -1.00, 305.3, 131.0)">o</text><text xml:space="preserve" font-family="TrebuchetMS" font-size="20.0" fill="#FEFFFF" transform="matrix(1.00, 0.00, -0.00, -1.00, 316.0, 131.0)">r</text><text xml:space="preserve" font-family="TrebuchetMS" font-size="20.0" fill="#FEFFFF" transform="matrix(1.00, 0.00, -0.00, -1.00, 323.8, 131.0)">i</text><text xml:space="preserve" font-family="TrebuchetMS" font-size="20.0" fill="#FEFFFF" transform="matrix(1.00, 0.00, -0.00, -1.00, 329.5, 131.0)">e</text><text xml:space="preserve" font-family="TrebuchetMS" font-size="20.0" fill="#FEFFFF" transform="matrix(1.00, 0.00, -0.00, -1.00, 340.4, 131.0)">s</text><text xml:space="preserve" font-family="TrebuchetMS" font-size="20.0" fill="#FEFFFF" transform="matrix(1.00, 0.00, -0.00, -1.00, 348.5, 131.0)">/</text><text xml:space="preserve" font-family="TrebuchetMS" font-size="20.0" fill="#FEFFFF" transform="matrix(1.00, 0.00, -0.00, -1.00, 359.0, 131.0)">”</text><text xml:space="preserve" font-family="TrebuchetMS" font-size="20.0" fill="#FEFFFF" transform="matrix(1.00, 0.00, -0.00, -1.00, 369.5, 131.0)">&gt;</text></g></g></g></svg>