<?xml version="1.0" encoding="UTF-8" standalone="no"?><svg xmlns="http://www.w3.org/2000/svg" xmlns:xlink="http://www.w3.org/1999/xlink" clip-rule="evenodd" stroke-miterlimit="4.00" viewBox="0 0 582 337"><desc>SVG generated by Keynote</desc><defs></defs><g transform="matrix(1.00, 0.00, -0.00, -1.00, 0.0, 337.0)"><g><clipPath id="clip-115"><path d="M 0.5 0.6 L 201.4 0.6 L 201.4 133.5 L 0.5 133.5 Z M 0.5 0.6 "></path></clipPath><g clip-path="url(#clip-115)"><image xlink:href="D810BC8A18FFBEF25650F76F3CC39A75.png" width="199.00" height="131.00" transform="matrix(1.00, 0.00, -0.00, -1.00, 1.5, 132.5)" opacity="0.35"></image><path d="M 0.0 99.1 L 0.0 19.8 C 0.0 8.9 8.9 0.0 19.8 0.0 L 167.1 0.0 C 178.0 0.0 186.9 8.9 186.9 19.8 L 186.9 99.1 C 186.9 110.0 178.0 118.9 167.1 118.9 L 19.8 118.9 C 8.9 118.9 0.0 110.0 0.0 99.1 Z M 0.0 99.1 " fill="none" stroke="#FFFF00" stroke-width="6.00" stroke-linejoin="round" transform="matrix(1.00, 0.00, 0.00, -1.00, 7.5, 128.3)"></path></g></g><g><clipPath id="clip-116"><path d="M 0.5 126.0 L 202.0 126.0 L 202.0 336.7 L 0.5 336.7 Z M 0.5 126.0 "></path></clipPath><g clip-path="url(#clip-116)"><image xlink:href="EAAD2D386ED4213FFCDF7F1D009EC893.png" width="200.00" height="209.00" transform="matrix(1.00, 0.00, -0.00, -1.00, 1.5, 335.7)" opacity="0.35"></image><path d="M 0.0 165.5 L 0.0 31.3 C 0.0 14.0 14.0 0.0 31.3 0.0 L 156.3 0.0 C 173.6 0.0 187.6 14.0 187.6 31.3 L 187.6 165.5 C 187.6 182.7 173.6 196.7 156.3 196.7 L 31.3 196.7 C 14.0 196.7 0.0 182.7 0.0 165.5 Z M 0.0 165.5 " fill="none" stroke="#FFFF00" stroke-width="6.00" stroke-linejoin="round" transform="matrix(1.00, 0.00, 0.00, -1.00, 7.5, 331.5)"></path></g></g><g><clipPath id="clip-117"><path d="M 196.1 216.6 L 581.6 216.6 L 581.6 335.2 L 196.1 335.2 Z M 196.1 216.6 "></path></clipPath><g clip-path="url(#clip-117)"><image xlink:href="EE9C60C5D9714DC95FFC67938409311D.png" width="383.00" height="117.00" transform="matrix(1.00, 0.00, -0.00, -1.00, 197.1, 334.2)" opacity="0.35"></image><path d="M 0.0 87.2 L 0.0 17.4 C 0.0 7.8 7.8 0.0 17.4 0.0 L 354.0 0.0 C 363.7 0.0 371.5 7.8 371.5 17.4 L 371.5 87.2 C 371.5 96.8 363.7 104.6 354.0 104.6 L 17.4 104.6 C 7.8 104.6 0.0 96.8 0.0 87.2 Z M 0.0 87.2 " fill="none" stroke="#FFFF00" stroke-width="6.00" stroke-linejoin="round" transform="matrix(1.00, 0.00, 0.00, -1.00, 203.1, 330.1)"></path></g></g><g><clipPath id="clip-118"><path d="M 195.2 4.7 L 580.6 4.7 L 580.6 227.8 L 195.2 227.8 Z M 195.2 4.7 "></path></clipPath><g clip-path="url(#clip-118)"><image xlink:href="1808328B4D18A835BC67DF2E180920B0.png" width="383.00" height="221.00" transform="matrix(1.00, 0.00, -0.00, -1.00, 196.2, 226.8)" opacity="0.35"></image><path d="M 0.0 174.3 L 0.0 34.9 C 0.0 15.6 15.6 0.0 34.9 0.0 L 336.6 0.0 C 355.9 0.0 371.5 15.6 371.5 34.9 L 371.5 174.3 C 371.5 193.5 355.9 209.1 336.6 209.1 L 34.9 209.1 C 15.6 209.1 0.0 193.5 0.0 174.3 Z M 0.0 174.3 " fill="none" stroke="#FFFF00" stroke-width="6.00" stroke-linejoin="round" transform="matrix(1.00, 0.00, 0.00, -1.00, 202.2, 222.6)"></path></g></g></g></svg>