<?xml version="1.0" encoding="UTF-8" standalone="no"?><svg xmlns="http://www.w3.org/2000/svg" xmlns:xlink="http://www.w3.org/1999/xlink" clip-rule="evenodd" stroke-miterlimit="4.00" viewBox="0 0 243 46"><desc>SVG generated by Keynote</desc><defs><linearGradient id="gradSh1.14" x1="0.0" y1="0.0" x2="100.0" y2="0.0" gradientUnits="userSpaceOnUse" gradientTransform="matrix(0.00, 0.36, 2.32, 0.00, 121.5, 8.0)"><stop offset="0.00000" stop-color="#00396E"></stop><stop offset="0.00220" stop-color="#003A6E"></stop><stop offset="0.12537" stop-color="#004380"></stop><stop offset="0.13270" stop-color="#004381"></stop><stop offset="0.52639" stop-color="#0161BA"></stop><stop offset="0.53152" stop-color="#0161BB"></stop><stop offset="0.57845" stop-color="#0266C3"></stop><stop offset="0.58065" stop-color="#0266C4"></stop><stop offset="0.68182" stop-color="#046FD6"></stop><stop offset="0.68402" stop-color="#046FD7"></stop><stop offset="0.73314" stop-color="#0873DE"></stop><stop offset="0.73460" stop-color="#0874DE"></stop><stop offset="0.80425" stop-color="#107AE7"></stop><stop offset="0.80938" stop-color="#107BE7"></stop><stop offset="0.94721" stop-color="#2087F8"></stop><stop offset="0.94868" stop-color="#2088F9"></stop><stop offset="1.00000" stop-color="#258CFF"></stop></linearGradient></defs><g transform="matrix(1.00, 0.00, -0.00, -1.00, 0.0, 46.0)"><g><clipPath id="clip-132"><path d="M 0.6 0.0 L 242.4 0.0 L 242.4 45.9 L 0.6 45.9 Z M 0.6 0.0 "></path></clipPath><g clip-path="url(#clip-132)"><image xlink:href="../../4E8B0CEF-97AA-4D4E-9E33-090D69A4A771/assets/5A186A851A82BD424707FA8616876910.png" width="240.00" height="44.00" transform="matrix(1.00, 0.00, -0.00, -1.00, 1.6, 44.9)" opacity="0.45"></image></g></g><g><clipPath id="clip-133"><path d="M 6.6 42.9 L 236.4 42.9 L 236.4 9.0 L 6.6 9.0 Z M 6.6 42.9 "></path></clipPath><g clip-path="url(#clip-133)"><g><clipPath id="clip-134"><path d="M 0.6 0.0 L 242.4 0.0 L 242.4 45.9 L 0.6 45.9 Z M 0.6 0.0 "></path></clipPath><g clip-path="url(#clip-134)"><path d="M 0.6 0.0 L 242.4 0.0 L 242.4 45.9 L 0.6 45.9 Z M 0.6 0.0 " fill="url(#gradSh1.14)"></path></g></g></g></g><image xlink:href="A3592C014391B9C1D017BF416EB00346.png" width="222.00" height="26.00" transform="matrix(1.00, 0.00, -0.00, -1.00, 12.0, 35.0)"></image><g><clipPath id="clip-135"><path d="M 3.5 3.6 L 243.7 3.6 L 243.7 44.2 L 3.5 44.2 Z M 3.5 3.6 "></path></clipPath><g clip-path="url(#clip-135)"><text xml:space="preserve" font-family="TrebuchetMS" font-size="20.0" fill="#FEFFFF" transform="matrix(1.00, 0.00, -0.00, -1.00, 12.0, 19.0)">&lt;</text><text xml:space="preserve" font-family="TrebuchetMS" font-size="20.0" fill="#FEFFFF" transform="matrix(1.00, 0.00, -0.00, -1.00, 22.5, 19.0)">l</text><text xml:space="preserve" font-family="TrebuchetMS" font-size="20.0" fill="#FEFFFF" transform="matrix(1.00, 0.00, -0.00, -1.00, 28.4, 19.0)">i</text><text xml:space="preserve" font-family="TrebuchetMS" font-size="20.0" fill="#FEFFFF" transform="matrix(1.00, 0.00, -0.00, -1.00, 34.1, 19.0)">n</text><text xml:space="preserve" font-family="TrebuchetMS" font-size="20.0" fill="#FEFFFF" transform="matrix(1.00, 0.00, -0.00, -1.00, 45.0, 19.0)">k</text><text xml:space="preserve" font-family="TrebuchetMS" font-size="20.0" fill="#FEFFFF" transform="matrix(1.00, 0.00, -0.00, -1.00, 55.1, 19.0)"> </text><text xml:space="preserve" font-family="TrebuchetMS" font-size="20.0" fill="#FEFFFF" transform="matrix(1.00, 0.00, -0.00, -1.00, 61.2, 19.0)">r</text><text xml:space="preserve" font-family="TrebuchetMS" font-size="20.0" fill="#FEFFFF" transform="matrix(1.00, 0.00, -0.00, -1.00, 68.9, 19.0)">e</text><text xml:space="preserve" font-family="TrebuchetMS" font-size="20.0" fill="#FEFFFF" transform="matrix(1.00, 0.00, -0.00, -1.00, 79.8, 19.0)">l</text><text xml:space="preserve" font-family="TrebuchetMS" font-size="20.0" fill="#FEFFFF" transform="matrix(1.00, 0.00, -0.00, -1.00, 85.7, 19.0)">=</text><text xml:space="preserve" font-family="TrebuchetMS" font-size="20.0" fill="#FEFFFF" transform="matrix(1.00, 0.00, -0.00, -1.00, 96.2, 19.0)">“</text><text xml:space="preserve" font-family="TrebuchetMS" font-size="20.0" fill="#FEFFFF" transform="matrix(1.00, 0.00, -0.00, -1.00, 106.7, 19.0)">/</text><text xml:space="preserve" font-family="TrebuchetMS" font-size="20.0" fill="#FEFFFF" transform="matrix(1.00, 0.00, -0.00, -1.00, 117.2, 19.0)">d</text><text xml:space="preserve" font-family="TrebuchetMS" font-size="20.0" fill="#FEFFFF" transform="matrix(1.00, 0.00, -0.00, -1.00, 128.4, 19.0)">a</text><text xml:space="preserve" font-family="TrebuchetMS" font-size="20.0" fill="#FEFFFF" transform="matrix(1.00, 0.00, -0.00, -1.00, 138.9, 19.0)">i</text><text xml:space="preserve" font-family="TrebuchetMS" font-size="20.0" fill="#FEFFFF" transform="matrix(1.00, 0.00, -0.00, -1.00, 144.6, 19.0)">l</text><text xml:space="preserve" font-family="TrebuchetMS" font-size="20.0" fill="#FEFFFF" transform="matrix(1.00, 0.00, -0.00, -1.00, 150.5, 19.0)">y</text><text xml:space="preserve" font-family="TrebuchetMS" font-size="20.0" fill="#FEFFFF" transform="matrix(1.00, 0.00, -0.00, -1.00, 160.3, 19.0)">d</text><text xml:space="preserve" font-family="TrebuchetMS" font-size="20.0" fill="#FEFFFF" transform="matrix(1.00, 0.00, -0.00, -1.00, 171.5, 19.0)">e</text><text xml:space="preserve" font-family="TrebuchetMS" font-size="20.0" fill="#FEFFFF" transform="matrix(1.00, 0.00, -0.00, -1.00, 182.4, 19.0)">a</text><text xml:space="preserve" font-family="TrebuchetMS" font-size="20.0" fill="#FEFFFF" transform="matrix(1.00, 0.00, -0.00, -1.00, 192.9, 19.0)">l</text><text xml:space="preserve" font-family="TrebuchetMS" font-size="20.0" fill="#FEFFFF" transform="matrix(1.00, 0.00, -0.00, -1.00, 198.8, 19.0)">/</text><text xml:space="preserve" font-family="TrebuchetMS" font-size="20.0" fill="#FEFFFF" transform="matrix(1.00, 0.00, -0.00, -1.00, 209.3, 19.0)">”</text><text xml:space="preserve" font-family="TrebuchetMS" font-size="20.0" fill="#FEFFFF" transform="matrix(1.00, 0.00, -0.00, -1.00, 219.8, 19.0)">&gt;</text></g></g></g></svg>