<?xml version="1.0" encoding="UTF-8" standalone="no"?><svg xmlns="http://www.w3.org/2000/svg" xmlns:xlink="http://www.w3.org/1999/xlink" clip-rule="evenodd" stroke-miterlimit="4.00" viewBox="0 0 74 52"><desc>SVG generated by Keynote</desc><defs><linearGradient id="gradSh1.4" x1="0.0" y1="0.0" x2="100.0" y2="0.0" gradientUnits="userSpaceOnUse" gradientTransform="matrix(0.00, 0.45, 0.67, 0.00, 36.8, 5.3)"><stop offset="0.00000" stop-color="#BABABA"></stop><stop offset="0.00733" stop-color="#BBBBBB"></stop><stop offset="1.00000" stop-color="#EDEDED"></stop></linearGradient></defs><g transform="matrix(1.00, 0.00, -0.00, -1.00, 0.0, 52.0)"><g><clipPath id="clip-39"><path d="M 0.4 0.7 L 73.2 0.7 L 73.2 51.9 L 0.4 51.9 Z M 0.4 0.7 "></path></clipPath><g clip-path="url(#clip-39)"><image xlink:href="../../A3D91DCB-44D6-4F2E-B95F-4EFA2D13DC26/assets/4E1F806E24B3441CAFD519E757F88DFA.png" width="71.00" height="49.00" transform="matrix(1.00, 0.00, -0.00, -1.00, 1.4, 50.9)" opacity="0.38"></image></g></g><g><clipPath id="clip-40"><path d="M 15.2 49.5 L 58.4 49.5 C 64.3 49.5 69.2 39.8 69.2 27.9 C 69.2 15.9 64.3 6.3 58.4 6.3 L 15.2 6.3 C 9.2 6.3 4.4 15.9 4.4 27.9 C 4.4 39.8 9.2 49.5 15.2 49.5 Z M 15.2 49.5 "></path></clipPath><g clip-path="url(#clip-40)"><g><clipPath id="clip-41"><path d="M 0.4 0.7 L 73.2 0.7 L 73.2 51.9 L 0.4 51.9 Z M 0.4 0.7 "></path></clipPath><g clip-path="url(#clip-41)"><path d="M 0.4 0.7 L 73.2 0.7 L 73.2 51.9 L 0.4 51.9 Z M 0.4 0.7 " fill="url(#gradSh1.4)"></path></g></g></g></g><g><clipPath id="clip-42"><path d="M 3.0 4.9 L 70.5 4.9 L 70.5 50.9 L 3.0 50.9 Z M 3.0 4.9 "></path></clipPath><g clip-path="url(#clip-42)"><path d="M 54.0 43.2 C 48.0 43.2 43.2 33.5 43.2 21.6 C 43.2 9.7 48.0 0.0 54.0 0.0 M 10.8 0.0 L 54.0 0.0 C 60.0 0.0 64.8 9.7 64.8 21.6 C 64.8 33.5 60.0 43.2 54.0 43.2 L 10.8 43.2 C 4.8 43.2 0.0 33.5 0.0 21.6 C 0.0 9.7 4.8 0.0 10.8 0.0 Z M 10.8 0.0 " fill="none" stroke="#000000" stroke-width="0.75" stroke-linejoin="round" transform="matrix(1.00, 0.00, 0.00, -1.00, 4.4, 49.5)"></path></g></g></g></svg>