<?xml version="1.0" encoding="UTF-8" standalone="no"?><svg xmlns="http://www.w3.org/2000/svg" xmlns:xlink="http://www.w3.org/1999/xlink" clip-rule="evenodd" stroke-miterlimit="4.00" viewBox="0 0 499 193"><desc>SVG generated by Keynote</desc><defs></defs><g transform="matrix(1.00, 0.00, -0.00, -1.00, 0.0, 193.0)"><g><clipPath id="clip-49"><path d="M 0.4 0.8 L 161.0 0.8 L 161.0 193.0 L 0.4 193.0 Z M 0.4 0.8 "></path></clipPath><g clip-path="url(#clip-49)"><path d="M 1.8 191.6 L 159.7 191.6 L 159.7 2.2 L 1.8 2.2 Z M 1.8 191.6 " fill="#9A7100" fill-opacity="0.85"></path><path d="M 0.0 0.0 L 157.9 0.0 L 157.9 189.4 L 0.0 189.4 Z M 0.0 0.0 " fill="none" stroke="#FFFFFF" stroke-width="0.75" stroke-linejoin="round" transform="matrix(1.00, 0.00, 0.00, -1.00, 1.8, 191.6)"></path></g></g><image xlink:href="CD4934F896A8BCA48ED2E0B27C69BE8D.png" width="125.00" height="31.00" transform="matrix(1.00, 0.00, -0.00, -1.00, 6.0, 182.0)"></image><g><clipPath id="clip-50"><path d="M -3.5 98.9 L 169.2 98.9 L 169.2 196.9 L -3.5 196.9 Z M -3.5 98.9 "></path></clipPath><g clip-path="url(#clip-50)"><text xml:space="preserve" font-family="Helvetica-Bold" font-weight="bold" font-size="32.0" fill="#FEFFFF" transform="matrix(1.00, 0.00, -0.00, -1.00, 5.0, 157.0)">P</text><text xml:space="preserve" font-family="Helvetica-Bold" font-weight="bold" font-size="32.0" fill="#FEFFFF" transform="matrix(1.00, 0.00, -0.00, -1.00, 26.3, 157.0)">r</text><text xml:space="preserve" font-family="Helvetica-Bold" font-weight="bold" font-size="32.0" fill="#FEFFFF" transform="matrix(1.00, 0.00, -0.00, -1.00, 38.8, 157.0)">o</text><text xml:space="preserve" font-family="Helvetica-Bold" font-weight="bold" font-size="32.0" fill="#FEFFFF" transform="matrix(1.00, 0.00, -0.00, -1.00, 58.3, 157.0)">d</text><text xml:space="preserve" font-family="Helvetica-Bold" font-weight="bold" font-size="32.0" fill="#FEFFFF" transform="matrix(1.00, 0.00, -0.00, -1.00, 77.9, 157.0)">u</text><text xml:space="preserve" font-family="Helvetica-Bold" font-weight="bold" font-size="32.0" fill="#FEFFFF" transform="matrix(1.00, 0.00, -0.00, -1.00, 97.4, 157.0)">c</text><text xml:space="preserve" font-family="Helvetica-Bold" font-weight="bold" font-size="32.0" fill="#FEFFFF" transform="matrix(1.00, 0.00, -0.00, -1.00, 115.2, 157.0)">t</text><text xml:space="preserve" font-family="Helvetica-Bold" font-weight="bold" font-size="32.0" fill="#FEFFFF" transform="matrix(1.00, 0.00, -0.00, -1.00, 125.9, 157.0)"> </text></g></g><image xlink:href="8D9BB523D950F2AB94F34C619493CF07.png" width="121.00" height="37.00" transform="matrix(1.00, 0.00, -0.00, -1.00, 5.0, 144.0)"></image><g><clipPath id="clip-51"><path d="M -3.5 98.9 L 169.2 98.9 L 169.2 196.9 L -3.5 196.9 Z M -3.5 98.9 "></path></clipPath><g clip-path="url(#clip-51)"><text xml:space="preserve" font-family="Helvetica-Bold" font-weight="bold" font-size="32.0" fill="#FEFFFF" transform="matrix(1.00, 0.00, -0.00, -1.00, 5.0, 119.0)">C</text><text xml:space="preserve" font-family="Helvetica-Bold" font-weight="bold" font-size="32.0" fill="#FEFFFF" transform="matrix(1.00, 0.00, -0.00, -1.00, 28.1, 119.0)">a</text><text xml:space="preserve" font-family="Helvetica-Bold" font-weight="bold" font-size="32.0" fill="#FEFFFF" transform="matrix(1.00, 0.00, -0.00, -1.00, 45.9, 119.0)">t</text><text xml:space="preserve" font-family="Helvetica-Bold" font-weight="bold" font-size="32.0" fill="#FEFFFF" transform="matrix(1.00, 0.00, -0.00, -1.00, 56.6, 119.0)">a</text><text xml:space="preserve" font-family="Helvetica-Bold" font-weight="bold" font-size="32.0" fill="#FEFFFF" transform="matrix(1.00, 0.00, -0.00, -1.00, 74.4, 119.0)">l</text><text xml:space="preserve" font-family="Helvetica-Bold" font-weight="bold" font-size="32.0" fill="#FEFFFF" transform="matrix(1.00, 0.00, -0.00, -1.00, 83.3, 119.0)">o</text><text xml:space="preserve" font-family="Helvetica-Bold" font-weight="bold" font-size="32.0" fill="#FEFFFF" transform="matrix(1.00, 0.00, -0.00, -1.00, 102.8, 119.0)">g</text></g></g><g><clipPath id="clip-52"><path d="M 158.4 132.2 L 498.8 132.2 L 498.8 191.9 L 158.4 191.9 Z M 158.4 132.2 "></path></clipPath><g clip-path="url(#clip-52)"><path d="M 159.4 190.9 L 497.8 190.9 L 497.8 133.2 L 159.4 133.2 Z M 159.4 190.9 " fill="#9A7100" fill-opacity="0.85"></path></g></g><image xlink:href="D4C15C3F50A4BF07C2A65DC1EDC6271B.png" width="270.00" height="23.00" transform="matrix(1.00, 0.00, -0.00, -1.00, 202.0, 156.0)"></image><g><clipPath id="clip-53"><path d="M 192.2 126.0 L 477.6 126.0 L 477.6 164.8 L 192.2 164.8 Z M 192.2 126.0 "></path></clipPath><g clip-path="url(#clip-53)"><text xml:space="preserve" font-family="CourierNewPS-BoldMT" font-weight="bold" font-size="19.0" fill="#FEFFFF" transform="matrix(1.00, 0.00, -0.00, -1.00, 204.0, 142.0)">&lt;</text><text xml:space="preserve" font-family="CourierNewPS-BoldMT" font-weight="bold" font-size="19.0" fill="#FEFFFF" transform="matrix(1.00, 0.00, -0.00, -1.00, 215.4, 142.0)">d</text><text xml:space="preserve" font-family="CourierNewPS-BoldMT" font-weight="bold" font-size="19.0" fill="#FEFFFF" transform="matrix(1.00, 0.00, -0.00, -1.00, 226.8, 142.0)">i</text><text xml:space="preserve" font-family="CourierNewPS-BoldMT" font-weight="bold" font-size="19.0" fill="#FEFFFF" transform="matrix(1.00, 0.00, -0.00, -1.00, 238.2, 142.0)">v</text><text xml:space="preserve" font-family="CourierNewPS-BoldMT" font-weight="bold" font-size="19.0" fill="#FEFFFF" transform="matrix(1.00, 0.00, -0.00, -1.00, 249.6, 142.0)"> </text><text xml:space="preserve" font-family="CourierNewPS-BoldMT" font-weight="bold" font-size="19.0" fill="#FEFFFF" transform="matrix(1.00, 0.00, -0.00, -1.00, 261.0, 142.0)">i</text><text xml:space="preserve" font-family="CourierNewPS-BoldMT" font-weight="bold" font-size="19.0" fill="#FEFFFF" transform="matrix(1.00, 0.00, -0.00, -1.00, 272.4, 142.0)">d</text><text xml:space="preserve" font-family="CourierNewPS-BoldMT" font-weight="bold" font-size="19.0" fill="#FEFFFF" transform="matrix(1.00, 0.00, -0.00, -1.00, 283.8, 142.0)">=</text><text xml:space="preserve" font-family="CourierNewPS-BoldMT" font-weight="bold" font-size="19.0" fill="#FEFFFF" transform="matrix(1.00, 0.00, -0.00, -1.00, 295.2, 142.0)">“</text><text xml:space="preserve" font-family="CourierNewPS-BoldMT" font-weight="bold" font-size="19.0" fill="#FEFFFF" transform="matrix(1.00, 0.00, -0.00, -1.00, 306.6, 142.0)">C</text><text xml:space="preserve" font-family="CourierNewPS-BoldMT" font-weight="bold" font-size="19.0" fill="#FEFFFF" transform="matrix(1.00, 0.00, -0.00, -1.00, 318.0, 142.0)">a</text><text xml:space="preserve" font-family="CourierNewPS-BoldMT" font-weight="bold" font-size="19.0" fill="#FEFFFF" transform="matrix(1.00, 0.00, -0.00, -1.00, 329.4, 142.0)">t</text><text xml:space="preserve" font-family="CourierNewPS-BoldMT" font-weight="bold" font-size="19.0" fill="#FEFFFF" transform="matrix(1.00, 0.00, -0.00, -1.00, 340.8, 142.0)">a</text><text xml:space="preserve" font-family="CourierNewPS-BoldMT" font-weight="bold" font-size="19.0" fill="#FEFFFF" transform="matrix(1.00, 0.00, -0.00, -1.00, 352.2, 142.0)">l</text><text xml:space="preserve" font-family="CourierNewPS-BoldMT" font-weight="bold" font-size="19.0" fill="#FEFFFF" transform="matrix(1.00, 0.00, -0.00, -1.00, 363.7, 142.0)">o</text><text xml:space="preserve" font-family="CourierNewPS-BoldMT" font-weight="bold" font-size="19.0" fill="#FEFFFF" transform="matrix(1.00, 0.00, -0.00, -1.00, 375.1, 142.0)">g</text><text xml:space="preserve" font-family="CourierNewPS-BoldMT" font-weight="bold" font-size="19.0" fill="#FEFFFF" transform="matrix(1.00, 0.00, -0.00, -1.00, 386.5, 142.0)">.</text><text xml:space="preserve" font-family="CourierNewPS-BoldMT" font-weight="bold" font-size="19.0" fill="#FEFFFF" transform="matrix(1.00, 0.00, -0.00, -1.00, 397.9, 142.0)">N</text><text xml:space="preserve" font-family="CourierNewPS-BoldMT" font-weight="bold" font-size="19.0" fill="#FEFFFF" transform="matrix(1.00, 0.00, -0.00, -1.00, 409.3, 142.0)">a</text><text xml:space="preserve" font-family="CourierNewPS-BoldMT" font-weight="bold" font-size="19.0" fill="#FEFFFF" transform="matrix(1.00, 0.00, -0.00, -1.00, 420.7, 142.0)">m</text><text xml:space="preserve" font-family="CourierNewPS-BoldMT" font-weight="bold" font-size="19.0" fill="#FEFFFF" transform="matrix(1.00, 0.00, -0.00, -1.00, 432.1, 142.0)">e</text><text xml:space="preserve" font-family="CourierNewPS-BoldMT" font-weight="bold" font-size="19.0" fill="#FEFFFF" transform="matrix(1.00, 0.00, -0.00, -1.00, 443.5, 142.0)">”</text><text xml:space="preserve" font-family="CourierNewPS-BoldMT" font-weight="bold" font-size="19.0" fill="#FEFFFF" transform="matrix(1.00, 0.00, -0.00, -1.00, 454.9, 142.0)">&gt;</text></g></g></g></svg>