<?xml version="1.0" encoding="UTF-8" standalone="no"?><svg xmlns="http://www.w3.org/2000/svg" xmlns:xlink="http://www.w3.org/1999/xlink" clip-rule="evenodd" stroke-miterlimit="4.00" viewBox="0 0 347 77"><desc>SVG generated by Keynote</desc><defs></defs><g transform="matrix(1.00, 0.00, -0.00, -1.00, 0.0, 77.0)"><g><clipPath id="clip-46"><path d="M 8.1 3.0 L 346.9 3.0 L 346.9 76.6 L 8.1 76.6 Z M 8.1 3.0 "></path></clipPath><g clip-path="url(#clip-46)"><path d="M 9.5 75.2 L 345.5 75.2 L 345.5 4.4 L 9.5 4.4 Z M 9.5 75.2 " fill="#00478E" fill-opacity="0.75"></path><path d="M 0.0 0.0 L 336.0 0.0 L 336.0 70.8 L 0.0 70.8 Z M 0.0 0.0 " fill="none" stroke="#FFFFFF" stroke-width="0.75" stroke-linejoin="round" transform="matrix(1.00, 0.00, 0.00, -1.00, 9.5, 75.2)"></path></g></g><image xlink:href="E94222BE9BDE30C33A069EB524E5CD57.png" width="148.00" height="37.00" transform="matrix(1.00, 0.00, -0.00, -1.00, 14.0, 66.0)"></image><g><clipPath id="clip-47"><path d="M 4.2 20.5 L 355.0 20.5 L 355.0 80.5 L 4.2 80.5 Z M 4.2 20.5 "></path></clipPath><g clip-path="url(#clip-47)"><text xml:space="preserve" font-family="Helvetica-Bold" font-weight="bold" font-size="32.0" fill="#FEFFFF" transform="matrix(1.00, 0.00, -0.00, -1.00, 13.0, 41.0)">I</text><text xml:space="preserve" font-family="Helvetica-Bold" font-weight="bold" font-size="32.0" fill="#FEFFFF" transform="matrix(1.00, 0.00, -0.00, -1.00, 21.9, 41.0)">n</text><text xml:space="preserve" font-family="Helvetica-Bold" font-weight="bold" font-size="32.0" fill="#FEFFFF" transform="matrix(1.00, 0.00, -0.00, -1.00, 41.4, 41.0)">v</text><text xml:space="preserve" font-family="Helvetica-Bold" font-weight="bold" font-size="32.0" fill="#FEFFFF" transform="matrix(1.00, 0.00, -0.00, -1.00, 59.2, 41.0)">e</text><text xml:space="preserve" font-family="Helvetica-Bold" font-weight="bold" font-size="32.0" fill="#FEFFFF" transform="matrix(1.00, 0.00, -0.00, -1.00, 77.0, 41.0)">n</text><text xml:space="preserve" font-family="Helvetica-Bold" font-weight="bold" font-size="32.0" fill="#FEFFFF" transform="matrix(1.00, 0.00, -0.00, -1.00, 96.6, 41.0)">t</text><text xml:space="preserve" font-family="Helvetica-Bold" font-weight="bold" font-size="32.0" fill="#FEFFFF" transform="matrix(1.00, 0.00, -0.00, -1.00, 107.2, 41.0)">o</text><text xml:space="preserve" font-family="Helvetica-Bold" font-weight="bold" font-size="32.0" fill="#FEFFFF" transform="matrix(1.00, 0.00, -0.00, -1.00, 126.8, 41.0)">r</text><text xml:space="preserve" font-family="Helvetica-Bold" font-weight="bold" font-size="32.0" fill="#FEFFFF" transform="matrix(1.00, 0.00, -0.00, -1.00, 139.2, 41.0)">y</text></g></g><g><clipPath id="clip-48"><path d="M -0.4 -0.1 L 336.0 -0.1 L 336.0 32.6 L -0.4 32.6 Z M -0.4 -0.1 "></path></clipPath><g clip-path="url(#clip-48)"><text xml:space="preserve" font-family="CourierNewPS-BoldMT" font-weight="bold" font-size="19.0" fill="#FEFFFF" transform="matrix(1.00, 0.00, -0.00, -1.00, 10.0, 11.0)">&lt;</text><text xml:space="preserve" font-family="CourierNewPS-BoldMT" font-weight="bold" font-size="19.0" fill="#FEFFFF" transform="matrix(1.00, 0.00, -0.00, -1.00, 21.4, 11.0)">d</text><text xml:space="preserve" font-family="CourierNewPS-BoldMT" font-weight="bold" font-size="19.0" fill="#FEFFFF" transform="matrix(1.00, 0.00, -0.00, -1.00, 32.8, 11.0)">i</text><text xml:space="preserve" font-family="CourierNewPS-BoldMT" font-weight="bold" font-size="19.0" fill="#FEFFFF" transform="matrix(1.00, 0.00, -0.00, -1.00, 44.2, 11.0)">v</text><text xml:space="preserve" font-family="CourierNewPS-BoldMT" font-weight="bold" font-size="19.0" fill="#FEFFFF" transform="matrix(1.00, 0.00, -0.00, -1.00, 55.6, 11.0)"> </text><text xml:space="preserve" font-family="CourierNewPS-BoldMT" font-weight="bold" font-size="19.0" fill="#FEFFFF" transform="matrix(1.00, 0.00, -0.00, -1.00, 67.0, 11.0)">i</text><text xml:space="preserve" font-family="CourierNewPS-BoldMT" font-weight="bold" font-size="19.0" fill="#FEFFFF" transform="matrix(1.00, 0.00, -0.00, -1.00, 78.4, 11.0)">d</text><text xml:space="preserve" font-family="CourierNewPS-BoldMT" font-weight="bold" font-size="19.0" fill="#FEFFFF" transform="matrix(1.00, 0.00, -0.00, -1.00, 89.8, 11.0)">=</text><text xml:space="preserve" font-family="CourierNewPS-BoldMT" font-weight="bold" font-size="19.0" fill="#FEFFFF" transform="matrix(1.00, 0.00, -0.00, -1.00, 101.2, 11.0)">“</text><text xml:space="preserve" font-family="CourierNewPS-BoldMT" font-weight="bold" font-size="19.0" fill="#FEFFFF" transform="matrix(1.00, 0.00, -0.00, -1.00, 112.6, 11.0)">I</text><text xml:space="preserve" font-family="CourierNewPS-BoldMT" font-weight="bold" font-size="19.0" fill="#FEFFFF" transform="matrix(1.00, 0.00, -0.00, -1.00, 124.0, 11.0)">n</text><text xml:space="preserve" font-family="CourierNewPS-BoldMT" font-weight="bold" font-size="19.0" fill="#FEFFFF" transform="matrix(1.00, 0.00, -0.00, -1.00, 135.4, 11.0)">v</text><text xml:space="preserve" font-family="CourierNewPS-BoldMT" font-weight="bold" font-size="19.0" fill="#FEFFFF" transform="matrix(1.00, 0.00, -0.00, -1.00, 146.8, 11.0)">e</text><text xml:space="preserve" font-family="CourierNewPS-BoldMT" font-weight="bold" font-size="19.0" fill="#FEFFFF" transform="matrix(1.00, 0.00, -0.00, -1.00, 158.2, 11.0)">n</text><text xml:space="preserve" font-family="CourierNewPS-BoldMT" font-weight="bold" font-size="19.0" fill="#FEFFFF" transform="matrix(1.00, 0.00, -0.00, -1.00, 169.7, 11.0)">t</text><text xml:space="preserve" font-family="CourierNewPS-BoldMT" font-weight="bold" font-size="19.0" fill="#FEFFFF" transform="matrix(1.00, 0.00, -0.00, -1.00, 181.1, 11.0)">o</text><text xml:space="preserve" font-family="CourierNewPS-BoldMT" font-weight="bold" font-size="19.0" fill="#FEFFFF" transform="matrix(1.00, 0.00, -0.00, -1.00, 192.5, 11.0)">r</text><text xml:space="preserve" font-family="CourierNewPS-BoldMT" font-weight="bold" font-size="19.0" fill="#FEFFFF" transform="matrix(1.00, 0.00, -0.00, -1.00, 203.9, 11.0)">y</text><text xml:space="preserve" font-family="CourierNewPS-BoldMT" font-weight="bold" font-size="19.0" fill="#FEFFFF" transform="matrix(1.00, 0.00, -0.00, -1.00, 215.3, 11.0)">.</text><text xml:space="preserve" font-family="CourierNewPS-BoldMT" font-weight="bold" font-size="19.0" fill="#FEFFFF" transform="matrix(1.00, 0.00, -0.00, -1.00, 226.7, 11.0)">I</text><text xml:space="preserve" font-family="CourierNewPS-BoldMT" font-weight="bold" font-size="19.0" fill="#FEFFFF" transform="matrix(1.00, 0.00, -0.00, -1.00, 238.1, 11.0)">n</text><text xml:space="preserve" font-family="CourierNewPS-BoldMT" font-weight="bold" font-size="19.0" fill="#FEFFFF" transform="matrix(1.00, 0.00, -0.00, -1.00, 249.5, 11.0)">S</text><text xml:space="preserve" font-family="CourierNewPS-BoldMT" font-weight="bold" font-size="19.0" fill="#FEFFFF" transform="matrix(1.00, 0.00, -0.00, -1.00, 260.9, 11.0)">t</text><text xml:space="preserve" font-family="CourierNewPS-BoldMT" font-weight="bold" font-size="19.0" fill="#FEFFFF" transform="matrix(1.00, 0.00, -0.00, -1.00, 272.3, 11.0)">o</text><text xml:space="preserve" font-family="CourierNewPS-BoldMT" font-weight="bold" font-size="19.0" fill="#FEFFFF" transform="matrix(1.00, 0.00, -0.00, -1.00, 283.7, 11.0)">c</text><text xml:space="preserve" font-family="CourierNewPS-BoldMT" font-weight="bold" font-size="19.0" fill="#FEFFFF" transform="matrix(1.00, 0.00, -0.00, -1.00, 295.1, 11.0)">k</text><text xml:space="preserve" font-family="CourierNewPS-BoldMT" font-weight="bold" font-size="19.0" fill="#FEFFFF" transform="matrix(1.00, 0.00, -0.00, -1.00, 306.5, 11.0)">”</text><text xml:space="preserve" font-family="CourierNewPS-BoldMT" font-weight="bold" font-size="19.0" fill="#FEFFFF" transform="matrix(1.00, 0.00, -0.00, -1.00, 317.9, 11.0)">&gt;</text></g></g></g></svg>