<?xml version="1.0" encoding="UTF-8" standalone="no"?><svg xmlns="http://www.w3.org/2000/svg" xmlns:xlink="http://www.w3.org/1999/xlink" clip-rule="evenodd" stroke-miterlimit="4.00" viewBox="0 0 339 62"><desc>SVG generated by Keynote</desc><defs></defs><g transform="matrix(1.00, 0.00, -0.00, -1.00, 0.0, 62.0)"><g><clipPath id="clip-43"><path d="M 0.2 6.5 L 339.0 6.5 L 339.0 61.3 L 0.2 61.3 Z M 0.2 6.5 "></path></clipPath><g clip-path="url(#clip-43)"><path d="M 1.6 59.9 L 337.6 59.9 L 337.6 7.8 L 1.6 7.8 Z M 1.6 59.9 " fill="#0F7D09" fill-opacity="0.75"></path><path d="M 0.0 0.0 L 336.0 0.0 L 336.0 52.0 L 0.0 52.0 Z M 0.0 0.0 " fill="none" stroke="#FFFFFF" stroke-width="0.75" stroke-linejoin="round" transform="matrix(1.00, 0.00, 0.00, -1.00, 1.6, 59.9)"></path></g></g><image xlink:href="05E4636714F6A51144F51BF12EDB3559.png" width="82.00" height="31.00" transform="matrix(1.00, 0.00, -0.00, -1.00, 6.0, 51.0)"></image><g><clipPath id="clip-44"><path d="M -3.7 5.2 L 347.1 5.2 L 347.1 65.2 L -3.7 65.2 Z M -3.7 5.2 "></path></clipPath><g clip-path="url(#clip-44)"><text xml:space="preserve" font-family="Helvetica-Bold" font-weight="bold" font-size="32.0" fill="#FEFFFF" transform="matrix(1.00, 0.00, -0.00, -1.00, 5.0, 26.0)">P</text><text xml:space="preserve" font-family="Helvetica-Bold" font-weight="bold" font-size="32.0" fill="#FEFFFF" transform="matrix(1.00, 0.00, -0.00, -1.00, 26.3, 26.0)">r</text><text xml:space="preserve" font-family="Helvetica-Bold" font-weight="bold" font-size="32.0" fill="#FEFFFF" transform="matrix(1.00, 0.00, -0.00, -1.00, 38.8, 26.0)">i</text><text xml:space="preserve" font-family="Helvetica-Bold" font-weight="bold" font-size="32.0" fill="#FEFFFF" transform="matrix(1.00, 0.00, -0.00, -1.00, 47.7, 26.0)">c</text><text xml:space="preserve" font-family="Helvetica-Bold" font-weight="bold" font-size="32.0" fill="#FEFFFF" transform="matrix(1.00, 0.00, -0.00, -1.00, 65.5, 26.0)">e</text></g></g><image xlink:href="6EEC92B1707690F41CBAC35C1BBA8C38.png" width="281.00" height="23.00" transform="matrix(1.00, 0.00, -0.00, -1.00, 38.0, 25.0)"></image><g><clipPath id="clip-45"><path d="M 28.1 -5.2 L 324.9 -5.2 L 324.9 33.6 L 28.1 33.6 Z M 28.1 -5.2 "></path></clipPath><g clip-path="url(#clip-45)"><text xml:space="preserve" font-family="CourierNewPS-BoldMT" font-weight="bold" font-size="19.0" fill="#FEFFFF" transform="matrix(1.00, 0.00, -0.00, -1.00, 40.0, 11.0)">&lt;</text><text xml:space="preserve" font-family="CourierNewPS-BoldMT" font-weight="bold" font-size="19.0" fill="#FEFFFF" transform="matrix(1.00, 0.00, -0.00, -1.00, 51.4, 11.0)">d</text><text xml:space="preserve" font-family="CourierNewPS-BoldMT" font-weight="bold" font-size="19.0" fill="#FEFFFF" transform="matrix(1.00, 0.00, -0.00, -1.00, 62.8, 11.0)">i</text><text xml:space="preserve" font-family="CourierNewPS-BoldMT" font-weight="bold" font-size="19.0" fill="#FEFFFF" transform="matrix(1.00, 0.00, -0.00, -1.00, 74.2, 11.0)">v</text><text xml:space="preserve" font-family="CourierNewPS-BoldMT" font-weight="bold" font-size="19.0" fill="#FEFFFF" transform="matrix(1.00, 0.00, -0.00, -1.00, 85.6, 11.0)"> </text><text xml:space="preserve" font-family="CourierNewPS-BoldMT" font-weight="bold" font-size="19.0" fill="#FEFFFF" transform="matrix(1.00, 0.00, -0.00, -1.00, 97.0, 11.0)">i</text><text xml:space="preserve" font-family="CourierNewPS-BoldMT" font-weight="bold" font-size="19.0" fill="#FEFFFF" transform="matrix(1.00, 0.00, -0.00, -1.00, 108.4, 11.0)">d</text><text xml:space="preserve" font-family="CourierNewPS-BoldMT" font-weight="bold" font-size="19.0" fill="#FEFFFF" transform="matrix(1.00, 0.00, -0.00, -1.00, 119.8, 11.0)">=</text><text xml:space="preserve" font-family="CourierNewPS-BoldMT" font-weight="bold" font-size="19.0" fill="#FEFFFF" transform="matrix(1.00, 0.00, -0.00, -1.00, 131.2, 11.0)">“</text><text xml:space="preserve" font-family="CourierNewPS-BoldMT" font-weight="bold" font-size="19.0" fill="#FEFFFF" transform="matrix(1.00, 0.00, -0.00, -1.00, 142.6, 11.0)">P</text><text xml:space="preserve" font-family="CourierNewPS-BoldMT" font-weight="bold" font-size="19.0" fill="#FEFFFF" transform="matrix(1.00, 0.00, -0.00, -1.00, 154.0, 11.0)">r</text><text xml:space="preserve" font-family="CourierNewPS-BoldMT" font-weight="bold" font-size="19.0" fill="#FEFFFF" transform="matrix(1.00, 0.00, -0.00, -1.00, 165.4, 11.0)">i</text><text xml:space="preserve" font-family="CourierNewPS-BoldMT" font-weight="bold" font-size="19.0" fill="#FEFFFF" transform="matrix(1.00, 0.00, -0.00, -1.00, 176.8, 11.0)">c</text><text xml:space="preserve" font-family="CourierNewPS-BoldMT" font-weight="bold" font-size="19.0" fill="#FEFFFF" transform="matrix(1.00, 0.00, -0.00, -1.00, 188.2, 11.0)">i</text><text xml:space="preserve" font-family="CourierNewPS-BoldMT" font-weight="bold" font-size="19.0" fill="#FEFFFF" transform="matrix(1.00, 0.00, -0.00, -1.00, 199.7, 11.0)">n</text><text xml:space="preserve" font-family="CourierNewPS-BoldMT" font-weight="bold" font-size="19.0" fill="#FEFFFF" transform="matrix(1.00, 0.00, -0.00, -1.00, 211.1, 11.0)">g</text><text xml:space="preserve" font-family="CourierNewPS-BoldMT" font-weight="bold" font-size="19.0" fill="#FEFFFF" transform="matrix(1.00, 0.00, -0.00, -1.00, 222.5, 11.0)">.</text><text xml:space="preserve" font-family="CourierNewPS-BoldMT" font-weight="bold" font-size="19.0" fill="#FEFFFF" transform="matrix(1.00, 0.00, -0.00, -1.00, 233.9, 11.0)">P</text><text xml:space="preserve" font-family="CourierNewPS-BoldMT" font-weight="bold" font-size="19.0" fill="#FEFFFF" transform="matrix(1.00, 0.00, -0.00, -1.00, 245.3, 11.0)">r</text><text xml:space="preserve" font-family="CourierNewPS-BoldMT" font-weight="bold" font-size="19.0" fill="#FEFFFF" transform="matrix(1.00, 0.00, -0.00, -1.00, 256.7, 11.0)">i</text><text xml:space="preserve" font-family="CourierNewPS-BoldMT" font-weight="bold" font-size="19.0" fill="#FEFFFF" transform="matrix(1.00, 0.00, -0.00, -1.00, 268.1, 11.0)">c</text><text xml:space="preserve" font-family="CourierNewPS-BoldMT" font-weight="bold" font-size="19.0" fill="#FEFFFF" transform="matrix(1.00, 0.00, -0.00, -1.00, 279.5, 11.0)">e</text><text xml:space="preserve" font-family="CourierNewPS-BoldMT" font-weight="bold" font-size="19.0" fill="#FEFFFF" transform="matrix(1.00, 0.00, -0.00, -1.00, 290.9, 11.0)">”</text><text xml:space="preserve" font-family="CourierNewPS-BoldMT" font-weight="bold" font-size="19.0" fill="#FEFFFF" transform="matrix(1.00, 0.00, -0.00, -1.00, 302.3, 11.0)">&gt;</text></g></g></g></svg>