<?xml version="1.0" encoding="UTF-8" standalone="no"?><svg xmlns="http://www.w3.org/2000/svg" xmlns:xlink="http://www.w3.org/1999/xlink" clip-rule="evenodd" stroke-miterlimit="4.00" viewBox="0 0 81 110"><desc>SVG generated by Keynote</desc><defs></defs><g transform="matrix(1.00, 0.00, -0.00, -1.00, 0.0, 110.0)"><g><clipPath id="clip-19"><path d="M 0.2 0.7 L 80.2 0.7 L 80.2 109.5 L 0.2 109.5 Z M 0.2 0.7 "></path></clipPath><g clip-path="url(#clip-19)"><image xlink:href="../../A3D91DCB-44D6-4F2E-B95F-4EFA2D13DC26/assets/B7D87B6D9C12FF0BD556FDBEA6520639.png" width="78.00" height="107.00" transform="matrix(1.00, 0.00, -0.00, -1.00, 1.2, 108.5)" opacity="0.38"></image><path d="M 4.2 89.0 L 22.2 107.0 L 76.2 107.0 L 76.2 24.2 L 58.2 6.2 L 4.2 6.2 Z M 4.2 89.0 " fill="#D09A00"></path></g></g><g><clipPath id="clip-20"><path d="M 57.2 5.2 L 77.2 5.2 L 77.2 108.0 L 57.2 108.0 Z M 57.2 5.2 "></path></clipPath><g clip-path="url(#clip-20)"><path d="M 58.2 89.0 L 76.2 107.0 L 76.2 24.2 L 58.2 6.2 Z M 58.2 89.0 " fill="#000000" fill-opacity="0.20"></path></g></g><g><clipPath id="clip-21"><path d="M 3.2 88.0 L 77.2 88.0 L 77.2 108.0 L 3.2 108.0 Z M 3.2 88.0 "></path></clipPath><g clip-path="url(#clip-21)"><path d="M 4.2 89.0 L 22.2 107.0 L 76.2 107.0 L 58.2 89.0 Z M 4.2 89.0 " fill="#FFFFFF" fill-opacity="0.20"></path></g></g><g><clipPath id="clip-22"><path d="M 1.7 3.7 L 78.7 3.7 L 78.7 109.5 L 1.7 109.5 Z M 1.7 3.7 "></path></clipPath><g clip-path="url(#clip-22)"><path d="M 0.0 18.0 L 18.0 0.0 L 72.0 0.0 L 72.0 82.8 L 54.0 100.8 L 0.0 100.8 Z M 0.0 18.0 L 54.0 18.0 L 72.0 0.0 M 54.0 18.0 L 54.0 100.8 " fill="none" stroke="#FFFFFF" stroke-width="3.00" stroke-linejoin="round" transform="matrix(1.00, 0.00, 0.00, -1.00, 4.2, 107.0)"></path></g></g></g></svg>