<?xml version="1.0" encoding="UTF-8" standalone="no"?><svg xmlns="http://www.w3.org/2000/svg" xmlns:xlink="http://www.w3.org/1999/xlink" clip-rule="evenodd" stroke-miterlimit="4.00" viewBox="0 0 81 110"><desc>SVG generated by Keynote</desc><defs></defs><g transform="matrix(1.00, 0.00, -0.00, -1.00, 0.0, 110.0)"><g><clipPath id="clip-11"><path d="M 0.5 0.7 L 80.5 0.7 L 80.5 109.5 L 0.5 109.5 Z M 0.5 0.7 "></path></clipPath><g clip-path="url(#clip-11)"><image xlink:href="B7D87B6D9C12FF0BD556FDBEA6520639.png" width="78.00" height="107.00" transform="matrix(1.00, 0.00, -0.00, -1.00, 1.5, 108.5)" opacity="0.38"></image><path d="M 4.5 89.0 L 22.5 107.0 L 76.5 107.0 L 76.5 24.2 L 58.5 6.2 L 4.5 6.2 Z M 4.5 89.0 " fill="#E0003B"></path></g></g><g><clipPath id="clip-12"><path d="M 57.5 5.2 L 77.5 5.2 L 77.5 108.0 L 57.5 108.0 Z M 57.5 5.2 "></path></clipPath><g clip-path="url(#clip-12)"><path d="M 58.5 89.0 L 76.5 107.0 L 76.5 24.2 L 58.5 6.2 Z M 58.5 89.0 " fill="#000000" fill-opacity="0.20"></path></g></g><g><clipPath id="clip-13"><path d="M 3.5 88.0 L 77.5 88.0 L 77.5 108.0 L 3.5 108.0 Z M 3.5 88.0 "></path></clipPath><g clip-path="url(#clip-13)"><path d="M 4.5 89.0 L 22.5 107.0 L 76.5 107.0 L 58.5 89.0 Z M 4.5 89.0 " fill="#FFFFFF" fill-opacity="0.20"></path></g></g><g><clipPath id="clip-14"><path d="M 2.0 3.7 L 79.0 3.7 L 79.0 109.5 L 2.0 109.5 Z M 2.0 3.7 "></path></clipPath><g clip-path="url(#clip-14)"><path d="M 0.0 18.0 L 18.0 0.0 L 72.0 0.0 L 72.0 82.8 L 54.0 100.8 L 0.0 100.8 Z M 0.0 18.0 L 54.0 18.0 L 72.0 0.0 M 54.0 18.0 L 54.0 100.8 " fill="none" stroke="#FFFFFF" stroke-width="3.00" stroke-linejoin="round" transform="matrix(1.00, 0.00, 0.00, -1.00, 4.5, 107.0)"></path></g></g></g></svg>