<?xml version="1.0" encoding="UTF-8" standalone="no"?><svg xmlns="http://www.w3.org/2000/svg" xmlns:xlink="http://www.w3.org/1999/xlink" clip-rule="evenodd" stroke-miterlimit="4.00" viewBox="0 0 1024 768"><desc>SVG generated by Keynote</desc><defs></defs><g transform="matrix(1.00, 0.00, -0.00, -1.00, 0.0, 768.0)"><path d="M 0.0 768.0 L 1024.0 768.0 L 1024.0 0.0 L 0.0 0.0 Z M 0.0 768.0 " fill="#000000"></path><g><clipPath id="clip-2"><path d="M 158.0 582.0 L 866.0 582.0 L 866.0 189.0 L 158.0 189.0 Z M 158.1 582.2 "></path></clipPath><g clip-path="url(#clip-2)"><image xlink:href="../../33AA9FCC-A146-4DA7-9256-991305ADC5A4/assets/9D16F5D82E2128DCFAF71D8CAF78C9A7.png" width="730.00" height="526.00" transform="matrix(1.00, 0.00, -0.00, -1.00, 158.0, 684.0)"></image></g></g><image xlink:href="../../B4DD6235-6915-4BA4-8E5D-256D1898E384/assets/78B42EB52F826AE46147BDACF2ADB5E2.png" width="143.00" height="235.00" transform="matrix(1.00, 0.00, -0.00, -1.00, 158.9, 549.9)" opacity="0.35"></image><path d="M 0.0 201.5 L 0.0 21.9 C 0.0 9.8 9.8 0.0 21.9 0.0 L 109.4 0.0 C 121.5 0.0 131.3 9.8 131.3 21.9 L 131.3 201.5 C 131.3 213.6 121.5 223.4 109.4 223.4 L 21.9 223.4 C 9.8 223.4 0.0 213.6 0.0 201.5 Z M 0.0 201.5 " fill="none" stroke="#FFFF00" stroke-width="6.00" stroke-linejoin="round" transform="matrix(1.00, 0.00, 0.00, -1.00, 164.9, 545.7)"></path><image xlink:href="../../B4DD6235-6915-4BA4-8E5D-256D1898E384/assets/CDE4715127DCF85629AD8AC95F042617.png" width="347.00" height="180.00" transform="matrix(1.00, 0.00, -0.00, -1.00, 305.4, 518.8)" opacity="0.35"></image><path d="M 0.0 140.0 L 0.0 28.0 C 0.0 12.5 12.5 0.0 28.0 0.0 L 307.3 0.0 C 322.8 0.0 335.3 12.5 335.3 28.0 L 335.3 140.0 C 335.3 155.5 322.8 168.0 307.3 168.0 L 28.0 168.0 C 12.5 168.0 0.0 155.5 0.0 140.0 Z M 0.0 140.0 " fill="none" stroke="#FFFF00" stroke-width="6.00" stroke-linejoin="round" transform="matrix(1.00, 0.00, 0.00, -1.00, 311.4, 514.6)"></path><image xlink:href="../../B4DD6235-6915-4BA4-8E5D-256D1898E384/assets/0B23476FE0996D2E65FBF62784FF4838.png" width="143.00" height="138.00" transform="matrix(1.00, 0.00, -0.00, -1.00, 159.3, 319.0)" opacity="0.35"></image><path d="M 0.0 105.0 L 0.0 21.0 C 0.0 9.4 9.4 0.0 21.0 0.0 L 110.3 0.0 C 121.9 0.0 131.3 9.4 131.3 21.0 L 131.3 105.0 C 131.3 116.6 121.9 126.0 110.3 126.0 L 21.0 126.0 C 9.4 126.0 0.0 116.6 0.0 105.0 Z M 0.0 105.0 " fill="none" stroke="#FFFF00" stroke-width="6.00" stroke-linejoin="round" transform="matrix(1.00, 0.00, 0.00, -1.00, 165.3, 314.8)"></path><image xlink:href="../../B4DD6235-6915-4BA4-8E5D-256D1898E384/assets/3A41E889B964437F8A36EA729F08E103.png" width="359.00" height="164.00" transform="matrix(1.00, 0.00, -0.00, -1.00, 289.2, 345.5)" opacity="0.35"></image><path d="M 0.0 127.1 L 0.0 25.4 C 0.0 11.4 11.4 0.0 25.4 0.0 L 321.2 0.0 C 335.2 0.0 346.6 11.4 346.6 25.4 L 346.6 127.1 C 346.6 141.1 335.2 152.5 321.2 152.5 L 25.4 152.5 C 11.4 152.5 0.0 141.1 0.0 127.1 Z M 0.0 127.1 " fill="none" stroke="#FFFF00" stroke-width="6.00" stroke-linejoin="round" transform="matrix(1.00, 0.00, 0.00, -1.00, 295.2, 341.3)"></path></g></svg>